<svg width="405" height="384" viewBox="0 0 405 384" fill="none" xmlns="http://www.w3.org/2000/svg">
<path d="M92.4071 1.10427C89.094 2.52414 84.3611 8.04587 83.4145 11.5955C82.9413 13.2521 82.5468 17.9061 82.5468 21.8502V29.1862H59.4345C34.0346 29.1862 31.2737 29.5806 22.439 33.998C16.1284 37.2321 8.55578 44.8048 5.32163 51.1153C0.430961 60.8966 0.509843 58.2146 0.509843 144.038C0.509843 219.291 0.588724 222.368 2.0086 224.103C4.05952 226.627 8.79242 226.627 10.8433 224.103C12.2632 222.368 12.3421 219.686 12.3421 162.023V101.757L146.914 101.6L281.487 101.363L282.985 99.4698C284.957 97.1033 284.878 93.4748 282.906 91.5027C281.329 89.9251 280.303 89.9251 146.757 89.9251H12.1843L12.4999 76.2786C12.8154 63.6575 12.9732 62.3954 14.8663 58.2146C17.5483 52.4563 23.2278 46.6979 29.3017 43.7004L34.0346 41.4128L58.3302 41.1762L82.5468 40.9395V48.1967C82.5468 57.3469 83.6512 61.1333 87.6742 65.0774C93.9847 71.3879 103.293 71.7823 109.919 66.0239C114.415 62.0799 115.677 58.5302 115.677 49.0644V41.0184H175.233H234.789V49.1432C234.789 56.006 235.104 57.8202 236.603 60.7389C241.73 70.9935 254.746 73.1233 262.792 65.1562C266.815 61.1333 267.919 57.4258 267.919 48.1967V40.9395L292.214 41.1762L316.431 41.4128L320.927 43.5426C327.159 46.4613 332.129 51.2731 335.205 57.5047C337.729 62.632 337.729 62.7898 337.966 76.2786L338.281 89.9251H319.744H301.128L299.55 91.976C297.657 94.3425 297.5 95.3679 298.762 98.0499C300.26 101.363 302.39 101.757 320.77 101.757H338.124V146.247C338.124 188.527 338.203 190.815 339.622 192.55C341.673 195.074 346.406 195.074 348.457 192.55C349.877 190.815 349.956 188.133 349.956 127.867C349.956 59.3979 350.035 61.0544 345.46 51.4308C342.699 45.6725 333.627 36.6011 327.869 33.7613C319.429 29.5806 316.116 29.1862 291.031 29.1862H267.919V21.0614C267.919 13.962 267.682 12.4632 265.947 8.91356C264.685 6.38935 262.713 4.10178 260.662 2.68191C257.743 0.630982 256.718 0.394337 251.275 0.394337C245.753 0.394337 244.885 0.630982 241.809 2.76079C236.524 6.46823 235.262 9.86015 234.946 20.2725L234.631 29.1862H175.154H115.677V20.6669C115.677 10.1757 114.178 6.54711 108.262 2.52414C104.949 0.315455 103.766 -7.16373e-05 99.5853 -7.16373e-05C96.9822 0.0788101 93.7481 0.5521 92.4071 1.10427ZM102.583 13.0943C103.687 14.1198 103.845 17.275 103.845 35.1023C103.845 55.6904 103.845 55.9271 102.11 57.1103C99.7431 58.7668 97.8499 58.6879 95.9567 56.7948C94.458 55.296 94.3791 54.1917 94.3791 35.2601C94.3791 18.5371 94.5369 15.0663 95.6412 13.5676C97.0611 11.5167 100.769 11.2011 102.583 13.0943ZM254.667 13.1732C256.008 14.3564 256.087 16.0918 256.087 34.8657C256.087 54.1917 256.008 55.296 254.509 56.7948C253.641 57.6625 252.221 58.3724 251.354 58.3724C250.486 58.3724 249.066 57.6625 248.198 56.7948C246.7 55.296 246.621 54.1917 246.621 34.9445C246.621 17.1961 246.779 14.5142 247.962 13.2521C249.539 11.5167 252.774 11.4378 254.667 13.1732Z" fill="#0088CC"/>
<path d="M45.0776 119.822C38.8459 121.399 32.8509 126.921 31.1944 132.522C28.4335 141.593 38.5304 145.616 42.3167 136.939C44.0521 132.758 45.7875 131.417 49.1006 131.417C52.5714 131.417 55.9633 134.572 55.9633 137.886C55.9633 141.199 53.4391 145.695 44.7621 157.606C31.5099 175.907 31.9043 175.197 32.3776 177.879C33.3242 182.69 34.5074 183.006 51.467 183.006C65.7446 183.006 66.8489 182.927 68.3477 181.428C70.7142 179.062 70.4775 174.881 67.8744 172.83C66.0601 171.41 64.6403 171.174 58.0142 171.174C53.6757 171.174 50.2049 171.016 50.2049 170.779C50.2049 170.621 53.0446 166.441 56.5943 161.55C63.7726 151.532 66.2968 147.036 67.6378 141.751C69.452 134.336 65.508 125.974 58.3297 122.109C54.149 119.822 48.7061 118.875 45.0776 119.822Z" fill="#0088CC"/>
<path d="M92.8804 121.241C91.0662 123.056 84.6767 133.074 71.4246 155.082C69.3737 158.395 69.5315 162.023 71.6613 164.074C73.2389 165.494 74.4221 165.652 84.2823 165.652H95.168V172.357C95.168 178.036 95.4047 179.298 96.7457 180.639C98.7177 182.611 102.346 182.69 104.713 180.797C106.211 179.535 106.527 178.352 106.843 172.514L107.237 165.652H109.524C112.364 165.652 115.677 162.496 115.677 159.736C115.677 156.975 112.364 153.819 109.446 153.819H107.158L106.843 138.753L106.606 123.687L104.003 121.399C100.532 118.244 96.1146 118.244 92.8804 121.241ZM95.168 147.115V153.819H90.7506C88.3053 153.819 86.491 153.504 86.6488 153.188C87.5954 150.901 94.0637 140.41 94.6158 140.41C94.9314 140.41 95.168 143.407 95.168 147.115Z" fill="#0088CC"/>
<path d="M147.546 121.872C145.416 122.74 144.39 124.949 134.372 150.112C122.934 178.825 122.619 180.087 126.169 182.611C128.614 184.347 131.69 184.031 133.584 181.98C135.398 180.008 155.907 128.972 155.907 126.605C155.828 122.74 151.411 120.216 147.546 121.872Z" fill="#0088CC"/>
<path d="M169.632 121.793C165.846 123.45 164.899 128.104 167.739 130.944C169.159 132.364 170.342 132.521 179.966 132.521C185.803 132.521 190.615 132.758 190.615 133.152C190.615 133.468 186.355 143.407 181.149 155.239C175.943 167.072 171.683 177.484 171.683 178.352C171.683 180.56 175.154 183.794 177.441 183.794C178.546 183.794 180.123 183.163 181.07 182.375C183.358 180.56 205.602 129.839 205.602 126.605C205.602 125.028 204.971 123.529 203.946 122.582C202.447 121.241 200.79 121.083 187.144 120.926C175.706 120.768 171.525 120.926 169.632 121.793Z" fill="#0088CC"/>
<path d="M219.801 133.231C216.172 134.415 214.2 135.992 212.623 138.99C211.282 141.593 211.124 143.723 211.124 156.975C211.124 173.934 211.755 176.459 216.804 179.456C219.17 180.876 220.826 181.034 235.577 181.034C251.275 181.034 251.827 180.955 254.351 179.219C258.926 175.906 259.242 174.487 259.242 156.975C259.242 139.463 258.926 138.043 254.351 134.73C251.906 132.995 251.038 132.916 236.761 132.758C228.557 132.679 220.905 132.837 219.801 133.231ZM247.41 156.975V169.675L235.42 169.438L223.351 169.201L223.114 156.738L222.877 144.354H235.183H247.41V156.975Z" fill="#0088CC"/>
<path d="M280.934 133.31C279.593 133.705 277.7 134.809 276.674 135.756C273.125 139.069 272.651 141.751 272.651 157.133C272.651 169.832 272.809 171.805 274.229 174.723C277.069 180.639 278.646 181.034 297.105 181.034C315.09 181.034 316.115 180.797 319.192 175.67C320.611 173.382 320.769 171.647 320.769 156.975C320.769 142.303 320.611 140.567 319.192 138.28C316.194 133.231 314.932 132.916 298.288 132.758C290.084 132.679 282.196 132.916 280.934 133.31ZM308.937 156.975V169.675L296.947 169.438L284.878 169.201L284.641 157.764C284.563 151.532 284.641 145.931 284.799 145.379C285.115 144.59 288.112 144.354 297.105 144.354H308.937V156.975Z" fill="#0088CC"/>
<path d="M43.8159 202.963C38.9252 206.197 38.373 208.406 38.373 225.208C38.373 242.009 38.9252 244.218 43.8159 247.452C46.3401 249.188 47.2078 249.267 62.1953 249.267C79.8648 249.267 82.0735 248.793 84.9133 244.139C86.3331 241.773 86.4909 240.274 86.4909 225.208C86.4909 200.991 86.6487 201.149 62.1953 201.149C47.2078 201.149 46.3401 201.228 43.8159 202.963ZM74.6586 225.208V237.434H62.432H50.2053V225.208V212.981H62.432H74.6586V225.208Z" fill="#0088CC"/>
<path d="M106.053 202.884C101.163 205.724 100.689 207.617 100.689 225.208C100.689 242.877 101.163 244.77 106.132 247.531C108.972 249.188 110.234 249.267 124.906 249.267C139.973 249.267 140.84 249.188 143.364 247.452C148.255 244.218 148.807 242.009 148.807 225.208C148.807 208.406 148.255 206.197 143.364 202.963C140.761 201.228 140.051 201.149 124.827 201.149C110.076 201.149 108.735 201.307 106.053 202.884ZM136.975 225.208V237.434H124.748H112.522V225.208V212.981H124.748H136.975V225.208Z" fill="#0088CC"/>
<path d="M168.606 202.569C167.108 203.279 165.136 204.935 164.268 206.118C162.69 208.248 162.611 209.431 162.611 225.208C162.611 240.984 162.69 242.167 164.268 244.297C167.502 248.793 169.79 249.267 186.512 249.267C203.63 249.267 205.917 248.714 208.757 244.139C210.177 241.773 210.335 240.274 210.335 225.208C210.335 201.07 210.414 201.149 186.512 201.149C173.576 201.149 170.894 201.385 168.606 202.569ZM198.503 225.208V237.434H186.276H174.049V225.208V212.981H186.276H198.503V225.208Z" fill="#0088CC"/>
<path d="M302.311 202.805C281.802 205.645 263.817 214.558 249.381 229.152C232.027 246.584 222.956 268.435 222.956 292.651C222.956 328.385 242.913 359.78 275.412 375.162C287.008 380.683 295.922 382.734 310.515 383.129C328.027 383.681 338.518 381.551 353.584 374.294C366.363 368.141 380.404 355.914 388.529 344.003C396.101 332.881 401.86 317.736 403.674 303.931C405.173 292.809 403.359 272.852 400.361 267.33C398.468 263.702 393.025 263.938 390.58 267.725C389.396 269.539 389.396 270.17 390.501 275.455C391.132 278.61 391.842 282.554 392.078 284.132L392.473 287.13H386.951C383.875 287.13 380.72 287.524 379.852 287.997C377.564 289.181 376.539 292.494 377.564 295.097C378.747 297.936 381.429 298.962 387.424 298.962H392.473L392 301.959C391.132 308.428 388.45 318.367 386.32 323.494C384.033 328.937 378.274 338.639 375.198 342.268L373.62 344.082L369.203 340.059C364.391 335.642 362.34 335.169 359.106 337.693C355.635 340.375 356.266 343.924 360.999 348.973L364.864 353.075L360.762 356.151C350.823 363.566 335.363 369.877 324.004 371.218L319.192 371.77V365.696C319.192 360.726 318.955 359.464 317.614 358.123C315.642 356.151 312.014 356.072 309.647 358.044C308.069 359.306 307.754 360.411 307.517 365.617L307.202 371.691L302.705 371.139C296.395 370.35 286.14 367.195 279.514 364.118C273.756 361.357 262.397 353.864 262.397 352.759C262.397 352.444 264.211 350.393 266.341 348.263C271.074 343.609 271.626 340.375 268.234 337.693C264.921 335.09 262.791 335.563 258.137 339.98C255.85 342.11 253.72 343.924 253.483 343.924C253.247 343.924 251.353 341.637 249.381 338.876C242.44 329.174 236.839 314.738 235.183 302.669L234.709 298.962H240.152C246.936 298.962 249.776 297.226 249.776 292.967C249.776 288.471 247.646 287.13 240.704 287.13C233.763 287.13 234.078 287.84 236.287 277.19C238.18 267.961 242.124 258.417 247.331 250.292C253.089 241.299 253.089 241.22 257.112 245.086C258.926 246.821 261.214 248.714 262.16 249.187C265.947 251.081 270.285 248.083 270.285 243.508C270.285 241.93 269.181 240.116 266.262 237.04L262.239 232.78L267.209 229.152C277.069 221.894 296.001 214.558 304.678 214.558H307.36V219.37C307.36 228.126 311.856 232.07 317.141 227.889C319.034 226.391 319.192 225.838 319.192 220.396V214.558H322.268C331.34 214.558 350.113 221.737 360.131 229.152L365.101 232.78L361.078 237.04C356.266 242.167 355.635 245.638 359.106 248.399C362.261 250.923 363.839 250.45 368.887 245.638L373.541 241.22L377.17 246.269C379.142 248.951 381.429 251.712 382.139 252.185C385.374 254.788 390.974 251.791 390.974 247.531C390.974 242.719 377.17 226.706 366.442 219.055C356.108 211.798 344.355 206.67 331.34 203.909C324.319 202.411 309.253 201.78 302.311 202.805Z" fill="#0088CC"/>
<path d="M2.16628 241.852C0.588647 243.903 0.509766 244.849 0.509766 270.959C0.509766 285.789 0.825293 299.909 1.29858 302.196C4.05944 317.42 17.6271 331.225 32.6935 334.38C35.6121 335.011 63.7729 335.248 125.222 335.248H213.569L215.462 333.276C216.567 332.25 217.435 330.83 217.435 330.199C217.435 328.306 215.778 325.151 214.358 324.441C213.648 324.125 172.787 323.652 123.565 323.415L34.0345 323.021L29.5382 320.891C23.3066 317.972 18.337 313.161 15.2606 306.929L12.7364 301.723L12.342 272.458C11.9476 245.007 11.8687 243.035 10.4489 241.457C8.24018 239.012 4.21721 239.248 2.16628 241.852Z" fill="#0088CC"/>
<path d="M311.225 247.216C307.912 248.793 307.36 251.238 307.36 263.938V275.928L304.993 276.875C302.154 278.058 298.131 282.476 296.632 286.025C294.975 289.969 295.212 297.069 297.184 301.092C300.734 308.349 309.174 312.451 317.299 310.794L321.716 309.848L332.129 320.181C341.673 329.568 342.857 330.515 345.46 330.515C347.59 330.515 348.694 329.962 349.877 328.464C353.032 324.52 352.322 323.258 340.885 311.583C330.709 301.25 330.236 300.697 331.024 298.646C333.706 291.626 330.236 282.239 323.373 277.664L319.192 274.982V262.282C319.192 251.081 319.034 249.345 317.851 248.32C315.8 246.584 313.276 246.19 311.225 247.216ZM316.747 287.524C323.609 291.074 318.64 301.407 311.304 298.883C306.965 297.305 305.861 291.705 309.332 288.313C311.541 286.025 313.591 285.868 316.747 287.524Z" fill="#0088CC"/>
<path d="M43.8159 261.335C38.9252 264.569 38.373 266.778 38.373 283.58C38.373 300.066 38.8463 302.354 43.3426 305.588C45.3935 307.086 46.8923 307.244 61.6432 307.481C76.4729 307.717 77.9717 307.639 80.8114 306.14C86.0176 303.458 86.4909 301.565 86.4909 283.185C86.4909 259.442 86.5698 259.521 62.1953 259.521C47.2078 259.521 46.3401 259.6 43.8159 261.335ZM74.6586 283.58V295.806H62.432H50.2053V283.58V271.353H62.432H74.6586V283.58Z" fill="#0088CC"/>
<path d="M106.449 260.783C105.029 261.493 103.135 263.228 102.268 264.727C100.69 267.173 100.611 268.356 100.848 284.29L101.085 301.249L103.372 303.616C107.08 307.481 108.578 307.718 125.775 307.481C140.289 307.244 141.788 307.087 143.838 305.588C148.335 302.354 148.808 300.066 148.808 283.58C148.808 266.778 148.256 264.569 143.365 261.335C140.762 259.6 140.052 259.521 124.828 259.521C111.891 259.521 108.499 259.758 106.449 260.783ZM136.976 283.58V295.807H124.749H112.522V283.58V271.353H124.749H136.976V283.58Z" fill="#0088CC"/>
<path d="M167.975 261.098C162.848 264.175 162.611 265.121 162.611 283.58C162.611 299.829 162.611 300.224 164.504 302.827C167.581 307.165 169.79 307.639 186.749 307.639C203.63 307.639 205.917 307.086 208.757 302.511C210.177 300.145 210.335 298.646 210.335 283.501C210.335 259.363 210.493 259.521 186.118 259.521C171.998 259.521 170.263 259.679 167.975 261.098ZM198.503 283.58V295.806H186.276H174.049V283.58V271.353H186.276H198.503V283.58Z" fill="#0088CC"/>
</svg>
