<svg width="377" height="385" viewBox="0 0 377 385" fill="none" xmlns="http://www.w3.org/2000/svg">
<path d="M168.769 0.816731C150.233 2.91084 117.89 13.0711 111.918 18.733C108.893 21.5251 109.592 24.0071 117.27 37.4249C124.793 50.5324 127.585 54.1777 130.145 54.1777C130.998 54.1777 135.652 52.549 140.538 50.61C151.163 46.3442 161.634 43.6296 173.19 42.0784C185.6 40.4497 184.902 41.6906 185.212 21.2149L185.445 4.53959L183.118 2.2128C180.559 -0.346663 179.705 -0.424222 168.769 0.816731ZM172.958 21.1373C172.958 30.2118 173.423 29.5913 166.365 30.5221C160.781 31.2201 148.526 34.4 140.926 37.1146C137.28 38.3556 133.945 39.4414 133.557 39.4414C133.092 39.4414 130.998 36.4166 128.826 32.6162L124.948 25.8685L126.81 24.8602C135.341 20.4393 161.401 13.3814 170.476 13.1487L172.958 13.0711V21.1373Z" fill="#0088CC"/>
<path d="M196.148 2.21274L193.821 4.53953L194.054 21.2148C194.364 41.3028 193.976 40.6047 203.982 41.7681C234.695 45.5686 259.669 57.7454 281.541 79.6948C293.253 91.4063 300.698 101.644 307.136 115.062C316.055 133.444 320.864 155.471 320.166 174.705L319.933 181.608L315.357 182.539C308.532 183.935 305.274 188.433 306.826 194.25C307.524 196.965 332.188 228.997 336.066 232.255C339.168 234.814 344.209 234.814 347.312 232.177C349.251 230.548 371.898 202.317 375.621 196.887C378.646 192.466 376.009 184.943 370.735 183.159C369.261 182.616 366.547 182.229 364.84 182.229L361.66 182.151L361.195 166.406C360.885 153.919 360.419 148.645 358.791 140.269C351.733 103.816 335.445 73.49 308.997 47.8954C281.541 21.37 246.717 4.92733 209.023 0.661551C199.173 -0.424284 198.708 -0.346724 196.148 2.21274ZM222.984 15.4754C273.708 25.946 318.072 63.2522 337.617 111.96C346.303 133.521 349.251 150.196 348.94 175.791C348.708 194.405 348.553 193.94 356.541 194.561L361.66 194.948L351.81 207.358C346.459 214.183 341.883 219.69 341.572 219.612C341.34 219.535 336.764 213.95 331.49 207.203C322.105 195.336 321.872 194.948 323.966 194.716C331.179 194.018 331.8 192.777 332.42 178.118C333.506 153.919 328.697 130.651 317.994 108.857C301.164 74.4207 270.993 47.9729 235.005 36.0287C228.18 33.7795 222.208 32.3834 208.092 29.6688C206.386 29.3586 206.308 29.0484 206.308 21.0597V12.8384L210.729 13.3813C213.211 13.6916 218.718 14.6223 222.984 15.4754Z" fill="#0088CC"/>
<path d="M86.7888 33.7797C76.4734 41.3805 59.3327 58.5212 51.7319 68.8366C46.768 75.4292 45.7598 77.3682 45.7598 79.7725C45.7598 81.5564 46.3027 83.1076 47.1558 83.8056C48.6295 85.1242 73.371 99.4727 75.3875 100.171C78.1797 101.179 81.0494 99.0849 85.3152 93.1904C90.8219 85.512 102.611 73.6453 110.91 67.2854C120.139 60.2275 120.139 60.3051 110.444 43.5522C106.334 36.3392 102.456 29.9017 101.758 29.1261C101.06 28.3505 99.5086 27.8076 97.7247 27.8076C95.3204 27.8076 93.3814 28.8159 86.7888 33.7797ZM99.9739 50.0672L103.929 56.8925L100.982 59.1417C97.2593 62.089 81.0494 78.3765 77.5592 82.6423L74.8446 85.9773L68.0969 82.0218C64.2965 79.8501 61.2717 77.756 61.2717 77.2906C61.2717 75.9721 69.5706 65.9669 76.3958 59.1417C83.3762 52.0838 93.7692 43.3195 95.1652 43.3195C95.6306 43.3195 97.8023 46.3444 99.9739 50.0672Z" fill="#0088CC"/>
<path d="M186.143 70.1548C170.554 74.2655 157.679 87.5282 153.956 103.273C150.388 118.319 154.654 133.521 165.59 144.69L171.019 150.196L165.202 152.601C153.491 157.409 141.391 166.561 133.015 176.877C120.993 191.846 111.763 219.457 117.115 224.809C118.666 226.36 119.675 226.36 197.312 226.36C273.63 226.36 275.957 226.282 277.741 224.886C280.145 222.947 280.068 218.526 277.664 208.909C273.01 190.295 262.384 174.085 247.338 162.839C241.598 158.418 229.809 151.98 225.776 150.894C223.992 150.429 224.07 150.196 229.266 144.767C238.263 135.227 241.986 126.153 242.064 113.821C242.064 100.868 238.186 91.4837 228.801 82.0214C222.441 75.584 215.073 71.3958 207.239 69.767C201.578 68.6036 191.262 68.7587 186.143 70.1548ZM211.117 84.1931C217.943 87.3731 223.527 92.9573 226.707 99.7826C229.034 104.669 229.189 105.522 229.189 113.511C229.189 121.499 229.034 122.352 226.707 127.239C223.527 134.064 217.943 139.648 211.117 142.828C206.231 145.155 205.378 145.31 197.389 145.31C189.866 145.31 188.392 145.077 184.592 143.294C157.213 130.341 159.463 91.7939 188.082 82.3317C190.021 81.7112 193.977 81.401 198.553 81.5561C204.99 81.7112 206.619 82.099 211.117 84.1931ZM213.987 160.512C221.743 162.296 231.748 166.872 238.418 171.603C244.778 176.179 254.085 186.106 257.731 192.311C260.755 197.43 264.711 206.97 265.642 211.391L266.185 213.95H197.467C159.695 213.95 128.749 213.795 128.749 213.64C128.749 213.485 129.447 210.926 130.378 208.056C138.522 181.53 161.479 162.373 189.246 158.883C196.071 158.03 206.076 158.65 213.987 160.512Z" fill="#0088CC"/>
<path d="M36.6862 93.8883C34.8247 95.9048 29.0853 109.012 26.1381 118.164C22.803 128.17 20.2435 139.881 18.8475 151.205C17.6841 161.288 17.6841 161.986 18.925 163.925C21.0967 167.182 23.1908 167.492 40.0988 167.26C59.4887 166.949 58.6355 167.492 60.1867 155.626C61.5052 145.388 64.2198 134.917 67.8651 125.533C69.4163 121.5 71.1226 116.923 71.5104 115.372C73.2168 109.943 72.5963 109.323 57.1619 100.403C41.9602 91.5615 39.5559 90.7859 36.6862 93.8883ZM55.3005 113.666C57.5497 115.062 58.1702 115.838 57.7048 116.846C55.3005 122.43 51.0347 136.779 49.6386 144.147C48.7079 149.033 47.7772 153.532 47.6221 153.997C47.467 154.695 45.0626 155.005 39.1681 155.005C29.7058 155.005 30.4038 156.014 32.2653 144.845C34.0491 134.219 36.8413 123.981 40.409 114.907L43.589 106.918L47.9323 109.4C50.4142 110.719 53.6717 112.658 55.3005 113.666Z" fill="#0088CC"/>
<path d="M20.1656 178.196C17.451 180.833 17.451 181.298 19.0022 193.552C21.0963 209.607 25.6723 226.127 32.1873 241.096C35.5224 248.93 37.3838 251.179 40.5638 251.179C42.9681 251.179 66.8565 237.917 70.4242 234.659C72.8286 232.41 72.5959 230.471 68.5628 220.466C64.297 209.762 61.66 199.524 60.1088 188.123C58.5576 175.714 59.6434 176.412 39.1677 176.101L22.4924 175.869L20.1656 178.196ZM48.8626 196.5C50.4138 205.497 52.8182 214.261 55.843 222.327L58.0147 227.989L56.3859 228.997C55.4552 229.54 52.2753 231.479 49.2504 233.263L43.8213 236.443L42.5803 233.883C38.7023 226.438 32.8078 204.643 31.4117 192.777L30.8688 188.278L39.1677 188.511L47.5441 188.744L48.8626 196.5Z" fill="#0088CC"/>
<path d="M110.91 238.537C104.163 240.321 95.8637 244.586 71.3549 258.78L48.4748 272.043L47.0011 269.561C42.8129 262.503 41.8046 261.339 38.392 259.711C32.2648 256.763 27.9215 257.617 16.2875 264.209C2.55948 272.043 1.64016e-05 274.912 1.64016e-05 282.513C1.64016e-05 286.779 -0.155103 286.546 29.7053 339.209C55.0673 384.039 54.6795 383.496 62.9009 384.349C66.7013 384.737 67.632 384.426 72.9061 381.712C86.1687 374.887 91.5979 371.164 93.692 367.596C97.2598 361.546 96.4842 356.427 90.6672 346.888L89.2711 344.561L93.5369 342.079C95.9413 340.683 98.3456 339.597 98.8885 339.597C99.509 339.597 117.503 344.328 138.987 350.223L177.999 360.771L186.919 360.848C202.431 361.003 195.062 364.726 274.949 315.631C324.975 284.918 326.681 283.677 329.163 275.61C331.257 269.095 330.637 260.564 327.689 255.135C320.244 241.484 302.948 239.235 282.705 249.395C279.758 250.946 263.315 260.254 246.252 270.259C229.111 280.186 213.909 288.873 212.358 289.494L209.566 290.657L210.652 287.089C213.056 279.023 211.35 271.345 205.766 265.14C201.112 259.943 198.63 258.78 185.29 255.522C173.423 252.653 166.753 250.559 143.098 242.337C129.292 237.529 128.051 237.218 121.769 237.296C118.123 237.296 113.237 237.839 110.91 238.537ZM136.893 253.196C159.618 261.184 170.011 264.519 180.714 267.156C193.744 270.414 195.76 271.345 197.777 274.68C200.569 279.256 199.096 286.546 194.907 288.64C189.478 291.433 187.306 291.122 162.41 284.219C153.878 281.815 146.122 279.876 145.114 279.876C142.865 279.876 139.607 283.211 139.607 285.616C139.607 290.269 140.848 291.045 153.18 294.457C192.193 305.393 203.439 306.557 216.314 301.283C218.718 300.352 235.471 290.89 253.62 280.264C271.769 269.716 288.832 260.098 291.624 258.857C307.524 252.11 317.994 255.522 317.994 267.467C317.994 269.638 317.452 272.43 316.831 273.594C315.28 276.619 205.223 344.561 197.777 347.12C190.797 349.525 184.592 349.37 174.121 346.655C169.468 345.414 150.543 340.373 132.084 335.409C113.625 330.445 97.9578 326.412 97.2598 326.412C96.5617 326.412 93.1491 328.041 89.7365 329.98C86.4014 331.919 83.299 333.237 82.9888 332.849C81.9805 331.764 55.0673 283.909 55.0673 283.211C55.0673 282.591 91.9082 260.952 102.379 255.522C115.874 248.387 122.079 247.999 136.893 253.196ZM58.6351 315.398C76.784 347.353 83.6093 360.15 83.1439 361.003C82.2132 362.632 65.1501 372.25 63.6765 372.017C62.1253 371.707 12.332 283.909 12.5647 281.97C12.8749 280.186 29.24 270.647 31.7219 270.802C33.2731 270.957 37.1511 277.317 58.6351 315.398Z" fill="#0088CC"/>
<path d="M25.1296 283.211C21.0189 286.779 23.4233 293.294 28.7749 293.294C31.3344 293.294 34.9021 290.269 34.9021 288.02C34.9021 285.926 33.1182 283.134 31.2568 282.28C28.5422 281.04 27.4564 281.195 25.1296 283.211Z" fill="#0088CC"/>
</svg>
