<svg width="48" height="49" viewBox="0 0 48 49" fill="none" xmlns="http://www.w3.org/2000/svg">
<path d="M18 23.0173L22 27.0173L31 18.0173M40 24.0173C40 33.8342 29.2921 40.9741 25.396 43.2471C24.9532 43.5054 24.7318 43.6346 24.4194 43.7016C24.1769 43.7536 23.8231 43.7536 23.5806 43.7016C23.2682 43.6346 23.0468 43.5054 22.604 43.2471C18.7079 40.9741 8 33.8342 8 24.0173V14.4525C8 12.8535 8 12.054 8.26152 11.3667C8.49255 10.7596 8.86797 10.2179 9.35532 9.78838C9.90699 9.3022 10.6556 9.02147 12.1528 8.46002L22.8764 4.43867C23.2922 4.28275 23.5001 4.20479 23.714 4.17388C23.9037 4.14647 24.0963 4.14647 24.286 4.17388C24.4999 4.20479 24.7078 4.28275 25.1236 4.43867L35.8472 8.46002C37.3444 9.02147 38.093 9.3022 38.6447 9.78838C39.132 10.2179 39.5075 10.7596 39.7385 11.3667C40 12.054 40 12.8535 40 14.4525V24.0173Z" stroke="#0088CC" stroke-width="3" stroke-linecap="round" stroke-linejoin="round"/>
</svg>
