<svg width="442" height="343" viewBox="0 0 442 343" fill="none" xmlns="http://www.w3.org/2000/svg">
<path d="M404.606 309.441H41.4833C35.8614 309.441 31.2617 304.842 31.2617 299.22V27.5967C31.2617 21.9752 35.8614 17.3757 41.4833 17.3757H404.606C410.228 17.3757 414.828 21.9752 414.828 27.5967V299.135C414.828 304.842 410.228 309.441 404.606 309.441Z" fill="#E5F7F4" stroke="#E5F7F4" stroke-width="15" stroke-miterlimit="10"/>
<path d="M404.606 64.3924H41.4833C35.8614 64.3924 31.2617 59.7929 31.2617 54.1714V27.5967C31.2617 21.9752 35.8614 17.3757 41.4833 17.3757H404.606C410.228 17.3757 414.828 21.9752 414.828 27.5967V54.1714C414.828 59.8781 410.228 64.3924 404.606 64.3924Z" fill="#020D0B"/>
<path d="M370.022 44.8874C371.81 44.8874 373.259 43.4383 373.259 41.6507C373.259 39.8632 371.81 38.4141 370.022 38.4141C368.234 38.4141 366.785 39.8632 366.785 41.6507C366.785 43.4383 368.234 44.8874 370.022 44.8874Z" fill="#DC2626"/>
<path d="M380.243 44.8874C382.03 44.8874 383.48 43.4383 383.48 41.6507C383.48 39.8632 382.03 38.4141 380.243 38.4141C378.455 38.4141 377.006 39.8632 377.006 41.6507C377.006 43.4383 378.455 44.8874 380.243 44.8874Z" fill="#F9B233"/>
<path d="M390.551 44.8874C392.339 44.8874 393.788 43.4383 393.788 41.6507C393.788 39.8632 392.339 38.4141 390.551 38.4141C388.764 38.4141 387.314 39.8632 387.314 41.6507C387.314 43.4383 388.764 44.8874 390.551 44.8874Z" fill="#1ED2D2"/>
<path d="M55.1122 108.513H41.4833C35.8614 108.513 31.2617 103.914 31.2617 98.2921V84.6641C31.2617 79.0426 35.8614 74.4431 41.4833 74.4431H55.1122C60.7341 74.4431 65.3338 79.0426 65.3338 84.6641V98.2921C65.3338 103.914 60.8192 108.513 55.1122 108.513Z" fill="#020D0B"/>
<path d="M41.3125 86.3674H55.3672" stroke="white" stroke-width="1.5" stroke-linecap="round"/>
<path d="M41.3125 91.478H55.3672" stroke="white" stroke-width="1.5" stroke-linecap="round"/>
<path d="M41.3125 96.5884H55.3672" stroke="white" stroke-width="1.5" stroke-linecap="round"/>
<path d="M55.1122 150.079H41.4833C35.8614 150.079 31.2617 145.479 31.2617 139.858V126.23C31.2617 120.608 35.8614 116.009 41.4833 116.009H55.1122C60.7341 116.009 65.3338 120.608 65.3338 126.23V139.858C65.3338 145.479 60.8192 150.079 55.1122 150.079Z" fill="white" stroke="white" stroke-width="0.25" stroke-miterlimit="10"/>
<path d="M55.1122 191.559H41.4833C35.8614 191.559 31.2617 186.959 31.2617 181.338V167.71C31.2617 162.088 35.8614 157.489 41.4833 157.489H55.1122C60.7341 157.489 65.3338 162.088 65.3338 167.71V181.338C65.3338 187.045 60.8192 191.559 55.1122 191.559Z" fill="#020D0B"/>
<path d="M44.0381 129.381L40.6309 132.788L44.0381 136.195" stroke="#36333D" stroke-linecap="round"/>
<path d="M52.5566 136.195L55.9638 132.788L52.5566 129.381" stroke="#36333D" stroke-linecap="round"/>
<path d="M45.7422 139.176L50.4271 126.826" stroke="#36333D" stroke-linecap="round"/>
<path fill-rule="evenodd" clip-rule="evenodd" d="M45.1457 165.58H43.4421V170.691H41.7385C41.3126 170.691 40.8867 171.117 40.8867 171.543V177.505C40.8867 179.89 42.7607 181.764 45.1457 181.764H45.9975V183.467H48.5529V181.764H49.4047C51.7898 181.764 53.6637 179.89 53.6637 177.505V171.543C53.6637 171.543 52.386 170.691 51.1083 170.691V165.58H49.4047V170.691H45.1457V165.58Z" fill="white"/>
<path d="M48.5536 171.117H52.8126C54.431 171.117 55.7939 172.48 55.7939 174.098V178.357C55.7939 179.975 54.431 181.338 52.8126 181.338H48.5536C46.9351 181.338 45.5723 179.975 45.5723 178.357V174.098C45.5723 172.48 46.9351 171.117 48.5536 171.117Z" fill="#36333D"/>
<path d="M53.4078 176.227H47.8711" stroke="white" stroke-linecap="round"/>
<path d="M50.6816 173.502V179.038" stroke="white" stroke-linecap="round"/>
<path d="M48.5536 171.117H52.8126C54.431 171.117 55.7939 172.48 55.7939 174.098V178.357C55.7939 179.975 54.431 181.338 52.8126 181.338H48.5536C46.9351 181.338 45.5723 179.975 45.5723 178.357V174.098C45.5723 172.48 46.9351 171.117 48.5536 171.117Z" stroke="white"/>
<path d="M81.0055 83.5566L78.1094 92.5" stroke="#0088CC" stroke-opacity="0.8" stroke-width="2" stroke-miterlimit="10" stroke-linecap="round" stroke-linejoin="round"/>
<path d="M86.202 83.5566L83.2207 92.5" stroke="#0088CC" stroke-opacity="0.8" stroke-width="2" stroke-miterlimit="10" stroke-linecap="round" stroke-linejoin="round"/>
<path d="M194.041 91.4779H93.614C92.1659 91.4779 91.0586 90.3707 91.0586 88.9227C91.0586 87.4747 92.1659 86.3674 93.614 86.3674H194.041C195.49 86.3674 196.597 87.4747 196.597 88.9227C196.597 90.2855 195.49 91.4779 194.041 91.4779Z" fill="#002424"/>
<path d="M242.935 91.4779H204.518C203.07 91.4779 201.963 90.3707 201.963 88.9227C201.963 87.4747 203.07 86.3674 204.518 86.3674H242.935C244.383 86.3674 245.49 87.4747 245.49 88.9227C245.49 90.2855 244.297 91.4779 242.935 91.4779Z" fill="#0D5E4F"/>
<path d="M353.156 91.4779H254.007C252.559 91.4779 251.451 90.3707 251.451 88.9227C251.451 87.4747 252.559 86.3674 254.007 86.3674H353.241C354.69 86.3674 355.797 87.4747 355.797 88.9227C355.712 90.2855 354.604 91.4779 353.156 91.4779Z" fill="#002424"/>
<path d="M132.199 108.428H80.0691C78.621 108.428 77.5137 107.321 77.5137 105.873C77.5137 104.425 78.621 103.317 80.0691 103.317H132.199C133.647 103.317 134.755 104.425 134.755 105.873C134.755 107.321 133.647 108.428 132.199 108.428Z" fill="#04215C"/>
<path d="M216.699 108.428H144.721C143.273 108.428 142.166 107.321 142.166 105.873C142.166 104.425 143.273 103.317 144.721 103.317H216.699C218.147 103.317 219.254 104.425 219.254 105.873C219.254 107.321 218.062 108.428 216.699 108.428Z" fill="#002424"/>
<path d="M353.072 108.428H229.475C228.027 108.428 226.92 107.321 226.92 105.873C226.92 104.425 228.027 103.317 229.475 103.317H353.072C354.52 103.317 355.627 104.425 355.627 105.873C355.627 107.321 354.52 108.428 353.072 108.428Z" fill="#0742B9"/>
<path d="M99.6601 331.842H19.9314C14.991 331.842 10.9023 327.839 10.9023 322.813V225.118C10.9023 220.178 14.9058 216.089 19.9314 216.089H99.6601C104.601 216.089 108.689 220.092 108.689 225.118V322.813C108.604 327.839 104.601 331.842 99.6601 331.842Z" fill="#F2F6FE"/>
<path d="M77.4287 284.655V288.999C77.4287 292.406 69.2514 295.132 59.7964 295.132C50.4265 295.132 42.1641 292.406 42.1641 288.999V284.655C46.4231 287.721 54.5152 288.658 59.7964 288.658C65.0775 288.573 73.1697 287.721 77.4287 284.655ZM59.7964 278.608C54.5152 278.608 46.4231 277.671 42.1641 274.604V278.863C42.1641 282.27 50.3414 284.996 59.7964 284.996C69.1662 284.996 77.4287 282.27 77.4287 278.863V274.604C73.1697 277.756 65.0775 278.608 59.7964 278.608ZM59.7964 252.885C50.4265 252.885 42.1641 255.61 42.1641 259.017C42.1641 262.424 50.3414 265.15 59.7964 265.15C69.1662 265.15 77.4287 262.424 77.4287 259.017C77.4287 255.61 69.1662 252.885 59.7964 252.885ZM59.7964 268.642C54.5152 268.642 46.4231 267.705 42.1641 264.639V268.898C42.1641 272.305 50.3414 275.03 59.7964 275.03C69.1662 275.03 77.4287 272.305 77.4287 268.898V264.639C73.1697 267.79 65.0775 268.642 59.7964 268.642Z" fill="#2269F6"/>
<path d="M273.087 142.924V232.102C273.087 235.765 271.469 239.001 268.828 241.216C266.784 242.919 264.143 243.941 261.332 243.941H172.063C167.89 243.941 164.142 241.727 162.097 238.405C160.99 236.616 160.309 234.487 160.309 232.187V142.924C160.309 136.451 165.59 131.17 172.063 131.17H261.247C267.806 131.17 273.087 136.451 273.087 142.924Z" fill="#1ED2D2"/>
<path d="M242.763 215.919L235.523 243.942H219.935L186.8 220.689L185.096 208.424L184.5 204.42L186.63 199.395L188.248 195.562C188.248 195.562 188.333 195.562 188.418 195.392C188.503 195.307 188.674 195.221 188.759 195.136C188.844 195.051 188.844 195.051 188.929 194.966C189.015 194.881 189.185 194.71 189.355 194.625C189.44 194.54 189.526 194.455 189.696 194.37C189.696 194.37 189.696 194.37 189.781 194.284C189.866 194.199 189.952 194.114 190.037 194.029C190.292 193.773 190.633 193.433 190.889 193.007C190.974 192.922 191.059 192.751 191.229 192.581C191.314 192.411 191.4 192.325 191.57 192.155C191.825 191.9 191.996 191.559 192.251 191.218C192.337 191.048 192.507 190.877 192.592 190.707C193.444 189.344 194.381 187.726 195.233 185.682C195.318 185.511 195.403 185.341 195.403 185.171C195.488 185 195.573 184.83 195.573 184.66C195.659 184.489 195.659 184.319 195.744 184.149C195.999 183.382 196.255 182.53 196.51 181.679C196.766 180.827 196.936 179.975 197.107 179.038C197.192 178.783 197.192 178.612 197.277 178.357C197.362 178.101 197.362 177.846 197.447 177.675C197.447 177.505 197.533 177.335 197.533 177.079C197.618 176.568 197.703 175.972 197.788 175.376C197.788 175.12 197.873 174.95 197.873 174.694C197.873 174.354 197.958 174.013 197.958 173.587C197.958 173.331 197.958 173.161 198.044 172.906C198.044 172.565 198.129 172.224 198.129 171.883C198.129 171.372 198.214 170.861 198.214 170.265C198.47 160.811 205.114 151.697 211.758 144.968C216.187 140.454 220.702 136.962 223.257 135.003C224.62 133.981 225.472 133.469 225.472 133.469L239.952 140.369C239.952 140.369 239.952 140.709 240.037 141.391C240.293 146.075 241.06 165.495 240.293 177.675C240.037 182.104 237.397 186.022 233.479 187.982C233.053 188.237 232.712 188.322 232.712 188.322L240.634 201.013L242.763 215.919Z" fill="#EAF4FE"/>
<path d="M230.157 243.941H228.709C219.765 227.162 206.903 217.452 206.903 217.452L208.266 213.619H194.552C194.382 213.449 194.297 213.364 194.126 213.193C193.956 213.023 193.871 212.853 193.7 212.682C193.615 212.597 193.615 212.512 193.53 212.512C193.274 212.171 193.104 211.916 192.849 211.575C192.763 211.405 192.593 211.234 192.508 210.979C192.423 210.808 192.337 210.723 192.252 210.553C192.167 210.382 192.082 210.297 192.082 210.127C191.656 209.275 191.23 208.338 190.889 207.401C190.804 207.146 190.719 206.89 190.634 206.635C190.549 206.294 190.463 206.039 190.378 205.698C190.293 205.357 190.208 205.102 190.123 204.761C190.038 204.505 189.952 204.165 189.867 203.909C189.782 203.654 189.782 203.483 189.697 203.228C189.697 203.143 189.697 203.057 189.612 203.057C189.527 202.802 189.441 202.461 189.441 202.206C189.356 201.95 189.271 201.609 189.271 201.354C189.186 201.098 189.186 200.843 189.101 200.502C188.504 197.606 188.334 195.477 188.334 195.477C188.334 195.477 188.419 195.647 188.675 195.818C190.123 197.436 191.656 198.713 193.104 199.736C200.344 205.016 206.563 203.398 206.903 203.313C218.999 211.405 226.665 232.528 230.157 243.941Z" fill="#016BE0"/>
<path d="M228.623 243.941H172.064C167.89 243.941 164.142 241.727 162.098 238.405C166.357 216.685 187.567 196.243 188.248 195.562C188.248 195.562 188.418 197.691 189.015 200.587C189.1 200.843 189.1 201.098 189.185 201.439C189.27 201.695 189.27 202.035 189.355 202.291C189.44 202.546 189.526 202.887 189.526 203.143C189.526 203.228 189.526 203.313 189.611 203.313C189.696 203.568 189.696 203.739 189.781 203.994C189.866 204.25 189.952 204.591 190.037 204.846C190.122 205.187 190.207 205.442 190.292 205.783C190.377 206.124 190.463 206.379 190.548 206.72C190.633 206.975 190.718 207.231 190.803 207.487C191.144 208.423 191.57 209.36 191.996 210.212C192.081 210.382 192.166 210.468 192.166 210.638C192.251 210.808 192.337 210.979 192.422 211.064C192.507 211.234 192.677 211.405 192.763 211.66C193.018 212.001 193.188 212.341 193.444 212.597C193.529 212.682 193.529 212.767 193.614 212.767C193.785 212.938 193.87 213.108 194.04 213.278C194.211 213.449 194.296 213.534 194.466 213.704H208.18L206.817 217.537C206.817 217.452 219.679 227.162 228.623 243.941Z" fill="#017EFF"/>
<path d="M268.744 241.216C266.699 242.919 264.059 243.941 261.248 243.941H233.138C235.438 218.644 228.454 191.303 228.283 190.537C228.283 190.537 228.283 190.537 228.368 190.537C231.35 191.133 232.542 188.407 232.627 188.322C233.224 188.578 271.044 205.953 268.744 241.216Z" fill="#017EFF"/>
<path d="M235.098 201.098C235.098 201.098 237.823 218.815 233.564 243.941H233.138C235.438 218.644 228.454 191.303 228.283 190.537C228.624 190.877 236.29 198.799 238.164 199.565C238.164 199.565 235.864 201.013 235.098 201.098Z" fill="#006CE0"/>
<path d="M228.283 191.303C228.283 191.303 227.005 207.486 206.817 203.483C206.391 203.568 197.362 205.868 188.248 195.562C188.248 195.562 188.333 195.562 188.418 195.477C189.526 194.625 195.403 189.77 197.448 177.675C197.788 175.461 198.044 172.991 198.129 170.35C198.384 160.896 205.029 151.782 211.673 145.053L223.172 135.088L238.164 141.646C238.164 141.646 216.783 151.441 215.932 163.621C215.165 175.631 228.283 191.303 228.283 191.303Z" fill="#C3DEFE"/>
<path d="M217.806 124.696C212.269 124.27 186.885 128.785 188.248 153.315C189.611 177.846 198.896 179.634 200.088 176.653C201.281 173.672 212.61 165.495 211.588 156.552C210.565 147.608 216.187 138.239 229.135 140.539C242.082 142.839 242.252 141.05 243.615 137.217C244.893 133.469 239.016 126.4 217.806 124.696Z" fill="#6FB5FF"/>
<path d="M228.282 191.303C225.642 193.007 220.786 193.688 215.335 192.581C209.883 191.559 196.51 189.089 196.425 194.37C196.34 199.65 206.817 203.398 206.817 203.398C196.851 204.08 190.462 197.777 188.418 195.392C189.525 194.54 195.403 189.685 197.447 177.59C209.883 189.515 228.282 191.303 228.282 191.303Z" fill="#AFD1F1"/>
<path d="M232.627 188.322C232.627 188.322 229.646 190.537 228.283 190.622L232.201 192.581L232.627 188.492V188.322Z" fill="#017EFF"/>
<path d="M310.652 221.966V315.999C310.652 319.832 312.441 323.324 315.167 325.539C317.296 327.328 320.107 328.435 323.089 328.435H417.042C421.472 328.435 425.39 326.135 427.605 322.643C428.797 320.769 429.479 318.469 429.479 316.085V221.966C429.479 215.152 423.942 209.531 417.042 209.531H323.089C316.189 209.616 310.652 215.152 310.652 221.966Z" fill="#0088CC" fill-opacity="0.8"/>
<path d="M345.917 226.736V246.156C345.917 246.156 341.232 245.134 340.38 238.405C339.528 231.761 344.213 227.673 345.917 226.736Z" fill="#345072"/>
<path d="M343.105 298.027L350.772 327.583H367.211L402.135 303.053L403.924 290.106L404.52 285.933L402.306 280.652L400.602 276.563C400.602 276.563 400.517 276.563 400.432 276.393C400.347 276.308 400.176 276.223 400.006 276.052C399.921 275.967 399.835 275.967 399.835 275.882C399.665 275.797 399.58 275.626 399.41 275.456C399.324 275.371 399.239 275.286 399.069 275.115C399.069 275.115 399.069 275.115 398.984 275.03C398.898 274.945 398.813 274.86 398.728 274.775C398.473 274.434 398.132 274.093 397.791 273.753C397.706 273.582 397.536 273.497 397.45 273.327C397.365 273.156 397.195 273.071 397.11 272.901C396.854 272.56 396.599 272.305 396.428 271.879C396.258 271.708 396.173 271.538 396.088 271.368C395.151 269.92 394.214 268.216 393.362 266.002C393.277 265.831 393.191 265.661 393.106 265.491C393.021 265.32 392.936 265.15 392.936 264.894C392.851 264.724 392.766 264.554 392.766 264.383C392.51 263.532 392.254 262.68 391.999 261.828C391.743 260.976 391.573 260.039 391.317 259.017C391.232 258.762 391.232 258.506 391.147 258.251C391.062 257.995 391.062 257.74 390.977 257.484C390.977 257.314 390.892 257.058 390.892 256.888C390.806 256.292 390.721 255.695 390.636 255.099C390.636 254.844 390.551 254.588 390.551 254.418C390.551 254.077 390.466 253.651 390.466 253.311C390.466 253.055 390.466 252.799 390.38 252.544C390.38 252.203 390.295 251.863 390.295 251.437C390.295 250.926 390.21 250.329 390.21 249.733C389.955 239.768 382.97 230.228 375.985 223.073C371.3 218.304 366.53 214.641 363.889 212.597C362.441 211.49 361.59 210.979 361.59 210.979L346.342 218.218C346.342 218.218 346.342 218.644 346.257 219.326C346.002 224.266 345.15 244.708 345.916 257.569C346.172 262.169 348.898 266.427 353.072 268.472C353.583 268.727 353.838 268.812 353.838 268.812L345.576 282.1L343.105 298.027Z" fill="#EAF4FE"/>
<path d="M356.479 327.583H358.012C367.382 309.952 381.01 299.646 381.01 299.646L379.562 295.558H394.043C394.213 295.387 394.299 295.302 394.469 295.132C394.639 294.961 394.724 294.791 394.895 294.621C394.98 294.535 394.98 294.45 395.065 294.45C395.321 294.11 395.576 293.769 395.747 293.428C395.832 293.258 396.002 293.002 396.087 292.832C396.172 292.662 396.258 292.491 396.343 292.321C396.428 292.151 396.513 292.065 396.598 291.895C397.024 290.958 397.45 290.021 397.876 289.084C397.961 288.829 398.046 288.573 398.132 288.318C398.217 287.977 398.387 287.721 398.472 287.381C398.558 287.04 398.643 286.784 398.728 286.444C398.813 286.103 398.898 285.848 398.983 285.507C399.069 285.251 399.154 284.996 399.154 284.74C399.154 284.655 399.154 284.57 399.239 284.57C399.324 284.229 399.409 283.974 399.495 283.633C399.58 283.292 399.665 283.037 399.665 282.696C399.75 282.441 399.75 282.1 399.835 281.844C400.431 278.863 400.602 276.563 400.602 276.563C400.602 276.563 400.431 276.734 400.261 276.904C398.728 278.608 397.109 279.97 395.661 281.078C387.995 286.614 381.521 284.996 381.096 284.911C368.148 293.343 360.056 315.574 356.479 327.583Z" fill="#016BE0"/>
<path d="M358.012 327.583H417.638C422.067 327.583 425.986 325.283 428.2 321.791C423.686 298.879 401.454 277.415 400.602 276.648C400.602 276.648 400.431 278.863 399.835 281.929C399.75 282.185 399.75 282.526 399.665 282.781C399.58 283.037 399.494 283.377 399.494 283.718C399.409 284.059 399.324 284.314 399.239 284.655C399.239 284.74 399.239 284.825 399.154 284.91C399.069 285.166 399.069 285.421 398.983 285.592C398.898 285.933 398.813 286.188 398.728 286.529C398.643 286.869 398.557 287.125 398.472 287.466C398.387 287.806 398.302 288.062 398.132 288.403C398.046 288.658 397.961 288.914 397.876 289.169C397.535 290.191 397.109 291.128 396.598 291.98C396.513 292.15 396.428 292.235 396.343 292.406C396.258 292.576 396.172 292.747 396.087 292.917C396.002 293.087 395.832 293.343 395.747 293.513C395.491 293.854 395.321 294.194 395.065 294.535C394.98 294.62 394.98 294.706 394.895 294.706C394.724 294.876 394.639 295.046 394.469 295.217C394.298 295.387 394.213 295.472 394.043 295.642H379.562L381.01 299.731C381.01 299.731 367.382 309.952 358.012 327.583Z" fill="#017EFF"/>
<path d="M315.762 324.772C317.892 326.561 320.703 327.668 323.684 327.668H353.242C350.857 301.094 358.182 272.219 358.438 271.453C358.438 271.453 358.438 271.453 358.352 271.453C355.286 272.049 353.923 269.238 353.838 269.068C353.242 269.238 313.292 287.551 315.762 324.772Z" fill="#017EFF"/>
<path d="M351.197 282.526C351.197 282.526 348.301 301.264 352.73 327.668H353.241C350.856 301.094 358.182 272.219 358.437 271.453C358.096 271.794 350.004 280.141 348.045 280.992C347.96 280.907 350.345 282.355 351.197 282.526Z" fill="#006CE0"/>
<path d="M358.352 272.134C358.352 272.134 359.715 289.169 381.01 284.911C381.521 284.996 390.976 287.381 400.516 276.563C400.516 276.563 400.431 276.478 400.346 276.393C399.153 275.541 393.02 270.431 390.891 257.655C390.465 255.355 390.209 252.8 390.209 249.904C389.954 239.938 382.969 230.399 375.984 223.244L363.888 212.767L348.045 219.667C348.045 219.667 370.618 229.973 371.469 242.834C372.151 255.696 358.352 272.134 358.352 272.134Z" fill="#C3DEFE"/>
<path d="M369.425 202.035C375.303 201.609 401.964 206.379 400.601 232.187C399.238 257.995 389.357 259.869 388.165 256.803C386.972 253.736 375.047 245.049 376.069 235.594C377.092 226.14 371.214 216.259 357.585 218.729C343.871 221.114 343.701 219.241 342.338 215.237C340.975 211.234 347.108 203.739 369.425 202.035Z" fill="#6FB5FF"/>
<path d="M358.352 272.134C361.077 273.923 366.273 274.604 371.98 273.497C377.687 272.39 391.827 269.835 391.913 275.371C391.998 280.993 381.009 284.911 381.009 284.911C391.487 285.677 398.216 279.034 400.345 276.478C399.153 275.627 393.02 270.516 390.89 257.74C377.773 270.26 358.352 272.134 358.352 272.134Z" fill="#AFD1F1"/>
<path d="M353.838 268.983C353.838 268.983 356.99 271.368 358.352 271.368L354.264 273.497L353.838 269.153V268.983Z" fill="#017EFF"/>
<path d="M378.797 253.31C379.138 253.481 379.393 253.566 379.734 253.651C384.248 254.929 389.87 251.351 392.681 245.219C395.066 240.108 394.811 234.742 392.426 231.506C391.744 230.569 390.807 229.802 389.785 229.376C385.1 227.247 378.882 230.909 375.901 237.468C372.92 244.112 374.197 251.181 378.797 253.31Z" fill="#345072"/>
<path d="M379.733 253.651C384.248 254.929 389.87 251.352 392.681 245.219C395.066 240.108 394.81 234.742 392.425 231.506C392.255 231.421 392.084 231.335 391.914 231.25C387.399 229.206 381.352 232.698 378.37 239.172C375.815 244.878 376.496 250.841 379.733 253.651Z" fill="#233045"/>
<path d="M382.203 249.222C382.374 249.307 382.544 249.393 382.714 249.478C385.27 250.415 388.677 248.371 390.551 244.623C392.084 241.471 392.169 238.064 390.892 236.02C390.551 235.424 390.04 234.913 389.444 234.572C386.803 233.124 383.055 235.168 381.096 239.172C379.137 243.26 379.563 247.774 382.203 249.222Z" fill="#087DF7"/>
<path d="M344.47 243.175C344.47 243.175 339.444 252.033 339.189 255.696C338.933 259.358 348.473 262.339 348.473 262.339" stroke="#345072" stroke-width="1.5" stroke-miterlimit="10"/>
<path d="M350.857 266.172L347.364 264.554C346.342 264.043 345.916 262.85 346.428 261.828L346.939 260.806C347.45 259.784 348.642 259.358 349.664 259.869L353.157 261.487C354.179 261.999 354.605 263.191 354.094 264.213L353.583 265.235C353.157 266.257 351.879 266.683 350.857 266.172Z" fill="#026BDC"/>
<mask id="mask0_2206_12004" style="mask-type:luminance" maskUnits="userSpaceOnUse" x="346" y="259" width="9" height="8">
<path d="M350.857 266.172L347.364 264.554C346.342 264.043 345.916 262.85 346.428 261.828L346.939 260.806C347.45 259.784 348.642 259.358 349.664 259.869L353.157 261.487C354.179 261.999 354.605 263.191 354.094 264.213L353.583 265.235C353.157 266.257 351.879 266.683 350.857 266.172Z" fill="white"/>
</mask>
<g mask="url(#mask0_2206_12004)">
<path d="M354.69 261.743C354.69 261.743 352.56 261.402 351.708 263.191C350.856 264.98 350.856 267.279 351.453 267.62C352.049 267.961 355.967 265.065 355.967 265.065L354.69 261.743Z" fill="#1761A3"/>
</g>
<path d="M333.821 194.881H301.282C295.405 194.881 290.635 190.111 290.635 184.234C290.635 178.357 295.405 173.587 301.282 173.587H323.174C329.051 173.587 333.821 178.357 333.821 184.234V194.881ZM301.282 174.268C295.746 174.268 291.316 178.783 291.316 184.234C291.316 189.685 295.831 194.199 301.282 194.199H333.14V184.234C333.14 178.697 328.625 174.268 323.174 174.268H301.282Z" fill="#7DA7FA"/>
<path d="M296.086 169.158H317.977C323.684 169.158 328.284 173.757 328.284 179.464V189.77H296.086C290.379 189.77 285.779 185.171 285.779 179.464C285.779 173.757 290.464 169.158 296.086 169.158Z" fill="#2269F6"/>
<path d="M317.041 182.615C315.337 182.615 313.975 181.252 313.975 179.549C313.975 177.845 315.337 176.483 317.041 176.483C318.745 176.483 320.108 177.845 320.108 179.549C320.193 181.167 318.745 182.615 317.041 182.615ZM317.041 177.079C315.678 177.079 314.656 178.186 314.656 179.464C314.656 180.827 315.763 181.849 317.041 181.849C318.404 181.849 319.426 180.741 319.426 179.464C319.511 178.186 318.404 177.079 317.041 177.079Z" fill="#E5F7F4"/>
<path d="M307.074 182.615C305.371 182.615 304.008 181.252 304.008 179.549C304.008 177.845 305.371 176.483 307.074 176.483C308.778 176.483 310.141 177.845 310.141 179.549C310.141 181.167 308.778 182.615 307.074 182.615ZM307.074 177.079C305.711 177.079 304.689 178.186 304.689 179.464C304.689 180.827 305.797 181.849 307.074 181.849C308.437 181.849 309.459 180.741 309.459 179.464C309.459 178.186 308.437 177.079 307.074 177.079Z" fill="#E5F7F4"/>
<path d="M297.024 182.615C295.32 182.615 293.957 181.252 293.957 179.549C293.957 177.845 295.32 176.483 297.024 176.483C298.727 176.483 300.09 177.845 300.09 179.549C300.175 181.167 298.727 182.615 297.024 182.615ZM297.024 177.079C295.661 177.079 294.638 178.186 294.638 179.464C294.638 180.827 295.746 181.849 297.024 181.849C298.386 181.849 299.409 180.741 299.409 179.464C299.494 178.186 298.386 177.079 297.024 177.079Z" fill="#E5F7F4"/>
<path d="M116.101 172.82C121.464 172.82 125.812 168.473 125.812 163.11C125.812 157.748 121.464 153.4 116.101 153.4C110.738 153.4 106.391 157.748 106.391 163.11C106.391 168.473 110.738 172.82 116.101 172.82Z" stroke="#38E2C3" stroke-width="0.5" stroke-miterlimit="10"/>
<path d="M121.638 176.909C127.001 176.909 131.349 172.561 131.349 167.199C131.349 161.836 127.001 157.489 121.638 157.489C116.275 157.489 111.928 161.836 111.928 167.199C111.928 172.561 116.275 176.909 121.638 176.909Z" fill="#0088CC" fill-opacity="0.8"/>
<path d="M122.32 234.317H76.0667C70.1041 234.317 65.334 229.547 65.334 223.585V212.256C65.334 206.294 70.1041 201.524 76.0667 201.524H122.234C128.197 201.524 132.967 206.294 132.967 212.256V223.585C133.052 229.547 128.197 234.317 122.32 234.317Z" fill="#FFE6D9"/>
<path d="M79.0488 222.562V212.512H85.5225V214.045H80.9228V216.77H85.0966V218.304H80.9228V222.562H79.0488Z" fill="#129216"/>
<path d="M88.5041 222.562H86.5449L90.1225 212.512H92.3372L95.9147 222.562H93.9556L91.2298 214.556H91.1447L88.5041 222.562ZM88.5041 218.559H93.7852V220.007H88.5041V218.559Z" fill="#129216"/>
<path d="M106.221 217.537C106.221 218.644 106.051 219.581 105.625 220.348C105.199 221.114 104.688 221.711 104.006 222.136C103.325 222.562 102.558 222.733 101.621 222.733C100.769 222.733 99.9176 222.562 99.2362 222.136C98.5547 221.711 97.9585 221.114 97.6177 220.348C97.277 219.581 97.0215 218.644 97.0215 217.537C97.0215 216.43 97.1918 215.493 97.6177 214.726C98.0436 213.96 98.5547 213.363 99.2362 212.938C99.9176 212.512 100.684 212.341 101.621 212.341C102.473 212.341 103.325 212.512 104.006 212.938C104.688 213.363 105.284 213.96 105.625 214.726C105.965 215.493 106.221 216.43 106.221 217.537ZM104.347 217.537C104.347 216.77 104.262 216.089 104.006 215.578C103.751 215.067 103.41 214.641 102.984 214.386C102.558 214.13 102.047 213.96 101.536 213.96C101.025 213.96 100.514 214.13 100.088 214.386C99.6621 214.641 99.3214 215.067 99.0658 215.578C98.8103 216.089 98.7251 216.77 98.7251 217.537C98.7251 218.304 98.8103 218.985 99.0658 219.496C99.3214 220.007 99.6621 220.433 100.088 220.688C100.514 220.944 101.025 221.114 101.536 221.114C102.047 221.114 102.558 220.944 102.984 220.688C103.41 220.433 103.751 220.007 104.006 219.496C104.262 218.985 104.347 218.304 104.347 217.537ZM100.94 219.155H102.558L103.495 220.433L104.177 221.285L105.88 223.414H104.091L102.984 221.966L102.473 221.285L100.94 219.155Z" fill="#129216"/>
<path d="M109.374 212.512V213.534C109.374 213.789 109.288 214.13 109.203 214.471C109.118 214.811 108.948 215.067 108.777 215.322C108.607 215.578 108.351 215.834 108.096 216.004L107.244 215.493C107.415 215.237 107.585 214.897 107.755 214.641C107.926 214.3 107.926 213.96 107.926 213.534V212.512H109.374Z" fill="#129216"/>
<path d="M116.785 217.026L115.166 217.196C115.081 217.026 115.081 216.856 114.911 216.77C114.74 216.685 114.655 216.515 114.485 216.43C114.314 216.345 114.059 216.259 113.803 216.259C113.463 216.259 113.122 216.344 112.866 216.515C112.611 216.685 112.526 216.856 112.526 217.111C112.526 217.367 112.611 217.537 112.781 217.622C112.951 217.707 113.207 217.878 113.633 217.963L114.911 218.218C115.592 218.389 116.188 218.644 116.529 218.985C116.87 219.326 117.04 219.752 117.04 220.263C117.04 220.774 116.87 221.114 116.614 221.54C116.359 221.966 115.933 222.222 115.507 222.392C114.996 222.562 114.485 222.733 113.803 222.733C112.866 222.733 112.1 222.562 111.589 222.136C110.992 221.711 110.652 221.199 110.566 220.518L112.27 220.348C112.355 220.688 112.526 220.944 112.781 221.114C113.037 221.285 113.377 221.37 113.803 221.37C114.229 221.37 114.57 221.285 114.825 221.114C115.081 220.944 115.251 220.688 115.251 220.433C115.251 220.177 115.166 220.007 114.996 219.922C114.825 219.837 114.57 219.666 114.229 219.581L112.951 219.326C112.185 219.155 111.674 218.9 111.333 218.559C110.992 218.218 110.822 217.707 110.822 217.196C110.822 216.77 110.907 216.345 111.163 216.004C111.418 215.663 111.759 215.408 112.27 215.237C112.696 215.067 113.292 214.982 113.888 214.982C114.74 214.982 115.507 215.152 116.018 215.578C116.359 215.833 116.699 216.344 116.785 217.026Z" fill="#129216"/>
<path fill-rule="evenodd" clip-rule="evenodd" d="M147.531 237.724L122.062 221.796L123.085 251.778L130.41 243.26L135.777 252.629L141.909 249.137L136.543 239.768L147.531 237.724Z" fill="url(#paint0_linear_2206_12004)"/>
<path d="M282.714 326.05H153.836C151.451 326.05 149.492 324.091 149.492 321.706V264.98C149.492 262.595 151.451 260.636 153.836 260.636H282.714C285.099 260.636 287.058 262.595 287.058 264.98V321.706C287.058 324.091 285.099 326.05 282.714 326.05Z" fill="#FBFBFB"/>
<path d="M225.728 276.478H160.139C158.095 276.478 156.477 274.86 156.477 272.816C156.477 270.772 158.095 269.153 160.139 269.153H225.728C227.772 269.153 229.391 270.772 229.391 272.816C229.391 274.86 227.772 276.478 225.728 276.478Z" fill="#0088CC" fill-opacity="0.8"/>
<path d="M256.478 276.478H236.12C234.075 276.478 232.457 274.86 232.457 272.816C232.457 270.772 234.075 269.153 236.12 269.153H256.478C258.522 269.153 260.141 270.772 260.141 272.816C260.141 274.86 258.437 276.478 256.478 276.478Z" fill="#1ED2D2"/>
<path d="M276.41 276.478H267.04C264.995 276.478 263.377 274.86 263.377 272.816C263.377 270.772 264.995 269.153 267.04 269.153H276.41C278.454 269.153 280.072 270.772 280.072 272.816C280.072 274.86 278.454 276.478 276.41 276.478Z" fill="#084EE5"/>
<path d="M225.728 290.192H160.139C158.095 290.192 156.477 288.573 156.477 286.529C156.477 284.485 158.095 282.866 160.139 282.866H225.728C227.772 282.866 229.391 284.485 229.391 286.529C229.391 288.488 227.772 290.192 225.728 290.192Z" fill="#0088CC" fill-opacity="0.8"/>
<path d="M256.478 290.192H236.12C234.075 290.192 232.457 288.573 232.457 286.529C232.457 284.485 234.075 282.866 236.12 282.866H256.478C258.522 282.866 260.141 284.485 260.141 286.529C260.141 288.488 258.437 290.192 256.478 290.192Z" fill="#1ED2D2"/>
<path d="M276.41 290.192H267.04C264.995 290.192 263.377 288.573 263.377 286.529C263.377 284.485 264.995 282.866 267.04 282.866H276.41C278.454 282.866 280.072 284.485 280.072 286.529C280.072 288.488 278.454 290.192 276.41 290.192Z" fill="#084EE5"/>
<path d="M225.728 303.82H160.139C158.095 303.82 156.477 302.201 156.477 300.157C156.477 298.113 158.095 296.495 160.139 296.495H225.728C227.772 296.495 229.391 298.113 229.391 300.157C229.391 302.201 227.772 303.82 225.728 303.82Z" fill="#0088CC" fill-opacity="0.8"/>
<path d="M256.478 303.82H236.12C234.075 303.82 232.457 302.201 232.457 300.157C232.457 298.113 234.075 296.495 236.12 296.495H256.478C258.522 296.495 260.141 298.113 260.141 300.157C260.141 302.201 258.437 303.82 256.478 303.82Z" fill="#1ED2D2"/>
<path d="M276.41 303.82H267.04C264.995 303.82 263.377 302.201 263.377 300.157C263.377 298.113 264.995 296.495 267.04 296.495H276.41C278.454 296.495 280.072 298.113 280.072 300.157C280.072 302.201 278.454 303.82 276.41 303.82Z" fill="#084EE5"/>
<path d="M225.728 317.533H160.139C158.095 317.533 156.477 315.914 156.477 313.87C156.477 311.826 158.095 310.208 160.139 310.208H225.728C227.772 310.208 229.391 311.826 229.391 313.87C229.391 315.829 227.772 317.533 225.728 317.533Z" fill="#0088CC" fill-opacity="0.8"/>
<path d="M256.478 317.533H236.12C234.075 317.533 232.457 315.914 232.457 313.87C232.457 311.826 234.075 310.208 236.12 310.208H256.478C258.522 310.208 260.141 311.826 260.141 313.87C260.141 315.829 258.437 317.533 256.478 317.533Z" fill="#1ED2D2"/>
<path d="M276.41 317.533H267.04C264.995 317.533 263.377 315.914 263.377 313.87C263.377 311.826 264.995 310.208 267.04 310.208H276.41C278.454 310.208 280.072 311.826 280.072 313.87C280.072 315.829 278.454 317.533 276.41 317.533Z" fill="#084EE5"/>
<path d="M400.262 126.315H356.735C352.987 126.315 350.006 129.381 350.006 133.044V176.568C350.006 180.316 353.072 183.297 356.735 183.297H400.262C404.01 183.297 406.991 180.231 406.991 176.568V133.044C406.991 129.381 404.01 126.315 400.262 126.315Z" fill="white" stroke="white" stroke-width="0.25" stroke-miterlimit="10"/>
<path d="M361.675 175.887C359.886 175.887 358.523 174.524 358.523 172.82V136.962C358.523 135.258 359.886 133.895 361.59 133.895H361.675C363.379 133.895 364.742 135.258 364.742 136.962V172.82C364.742 174.524 363.379 175.887 361.675 175.887Z" fill="url(#paint1_linear_2206_12004)"/>
<path d="M378.54 175.886C376.752 175.886 375.389 174.524 375.389 172.82V159.618C375.389 157.915 376.752 156.552 378.455 156.552H378.54C380.244 156.552 381.607 157.915 381.607 159.618V172.82C381.607 174.524 380.244 175.886 378.54 175.886Z" fill="url(#paint2_linear_2206_12004)"/>
<path d="M395.406 175.887C393.617 175.887 392.254 174.524 392.254 172.82V141.731C392.254 140.028 393.617 138.665 395.32 138.665H395.406C397.109 138.665 398.472 140.028 398.472 141.731V172.82C398.557 174.524 397.109 175.887 395.406 175.887Z" fill="url(#paint3_linear_2206_12004)"/>
<path opacity="0.99" fill-rule="evenodd" clip-rule="evenodd" d="M46.9506 27.2561C48.8101 27.2561 50.6697 27.2561 52.5292 27.2561C54.1646 27.3209 55.5305 27.9526 56.6269 29.1514C56.7795 29.3283 56.9188 29.5148 57.0448 29.711C57.0569 29.735 57.0569 29.7591 57.0448 29.7832C56.3241 31.2026 56.2272 32.6647 56.7541 34.1694C56.8477 34.4213 56.9537 34.668 57.0721 34.9095C56.266 36.3634 55.0243 37.1546 53.3469 37.2831C51.2269 37.2951 49.1069 37.2951 46.9869 37.2831C46.7961 37.238 46.678 37.1206 46.6326 36.9311C46.6204 36.4257 46.6204 35.9203 46.6326 35.4149C46.676 35.1912 46.8123 35.0679 47.0414 35.0448C49.1251 35.0388 51.2087 35.0328 53.2924 35.0268C53.7651 34.959 54.1619 34.7514 54.4826 34.4041C54.8945 33.9469 55.1732 33.4174 55.3185 32.8156C55.4901 31.5531 55.0328 30.5874 53.9466 29.9185C53.5397 29.6916 53.1036 29.5592 52.6382 29.5214C50.7302 29.5154 48.8222 29.5094 46.9142 29.5034C46.7234 29.4583 46.6053 29.3409 46.5599 29.1514C46.5478 28.646 46.5478 28.1406 46.5599 27.6352C46.6042 27.4196 46.7344 27.2933 46.9506 27.2561Z" fill="#0088CC"/>
<path opacity="0.993" fill-rule="evenodd" clip-rule="evenodd" d="M80.0424 27.2561C80.9995 27.2561 81.9564 27.2561 82.9135 27.2561C84.346 27.2711 85.7815 27.2802 87.2201 27.2832C88.736 27.4172 89.8961 28.1182 90.7 29.386C91.163 30.131 91.4386 30.9373 91.5268 31.8048C91.5268 32.0334 91.5268 32.2621 91.5268 32.4907C91.3098 34.2609 90.4134 35.5696 88.8374 36.4167C88.1076 36.7904 87.3324 36.995 86.5114 37.0304C85.0517 37.0364 83.5918 37.0424 82.1321 37.0484C81.9519 37.1011 81.8399 37.2184 81.7959 37.4004C81.7899 38.2909 81.7838 39.1814 81.7778 40.0719C81.7247 40.2508 81.6066 40.3622 81.4234 40.4058C80.9259 40.4232 80.4291 40.4172 79.9334 40.3878C79.7802 40.3259 79.6862 40.2145 79.6517 40.0538C79.6395 35.9143 79.6395 31.7747 79.6517 27.6352C79.696 27.4196 79.8263 27.2933 80.0424 27.2561ZM82.1139 29.2597C83.5918 29.2567 85.0699 29.2597 86.5478 29.2687C87.5447 29.377 88.3351 29.8312 88.9192 30.6315C89.5248 31.639 89.537 32.6558 88.9555 33.682C88.7335 34.0904 88.4336 34.4304 88.056 34.7019C87.7822 34.8708 87.4853 34.9791 87.1656 35.0268C85.4942 35.0565 83.8224 35.0625 82.1503 35.0448C81.9515 34.9978 81.8334 34.8745 81.7959 34.6748C81.7838 32.9901 81.7838 31.3054 81.7959 29.6207C81.8417 29.446 81.9477 29.3257 82.1139 29.2597Z" fill="#0088CC"/>
<path opacity="0.988" fill-rule="evenodd" clip-rule="evenodd" d="M42.5898 28.8808C42.5898 28.7425 42.5898 28.6041 42.5898 28.4657C42.7346 27.8015 43.1465 27.4194 43.8255 27.3195C44.4418 27.2363 44.9355 27.4379 45.3065 27.9242C45.5352 28.3194 45.5776 28.7346 45.4337 29.1697C45.218 29.6665 44.8395 29.9523 44.298 30.027C43.7623 30.1086 43.305 29.9612 42.926 29.5848C42.7547 29.3769 42.6426 29.1422 42.5898 28.8808Z" fill="#0088CC"/>
<path opacity="0.991" fill-rule="evenodd" clip-rule="evenodd" d="M62.3421 27.4005C64.8739 27.3975 67.4059 27.4005 69.9378 27.4096C69.1426 27.9226 68.4946 28.5785 67.9934 29.3771C66.0551 29.3831 64.1169 29.3891 62.1785 29.3951C61.1309 29.5676 60.3708 30.1241 59.898 31.0648C59.4328 32.1966 59.5842 33.2375 60.3523 34.1875C60.8755 34.7617 61.5265 35.0896 62.3057 35.1712C64.1834 35.1742 66.0612 35.1833 67.9389 35.1983C68.345 35.9691 68.8964 36.6189 69.5925 37.1477C67.0667 37.1688 64.5408 37.1718 62.015 37.1568C60.3156 37.0761 59.0466 36.3089 58.2081 34.8553C57.6257 33.8521 57.4016 32.7752 57.5357 31.6243C57.8166 30.0584 58.6495 28.8821 60.0343 28.0955C60.7571 27.704 61.5264 27.4724 62.3421 27.4005Z" fill="#0088CC"/>
<path opacity="0.992" fill-rule="evenodd" clip-rule="evenodd" d="M73.2821 27.4006C75.0326 27.4006 76.7832 27.4006 78.5337 27.4006C78.5337 28.0625 78.5337 28.7243 78.5337 29.3862C76.656 29.3832 74.7782 29.3862 72.9005 29.3952C71.6963 29.6127 70.8936 30.2956 70.4928 31.4439C70.1846 32.6854 70.5148 33.7232 71.4831 34.5576C71.9425 34.912 72.4635 35.1166 73.0459 35.1713C74.8752 35.1803 76.7043 35.1834 78.5337 35.1803C78.5337 35.8422 78.5337 36.504 78.5337 37.1659C76.559 37.1689 74.5845 37.1659 72.6098 37.1569C70.9456 37.0125 69.719 36.2152 68.93 34.7652C68.2846 33.6082 68.115 32.3868 68.4212 31.101C68.885 29.5873 69.845 28.5073 71.3014 27.8609C71.9372 27.5933 72.5974 27.4399 73.2821 27.4006Z" fill="#0088CC"/>
<path opacity="0.994" fill-rule="evenodd" clip-rule="evenodd" d="M43.1896 31.4076C43.7651 31.4046 44.3405 31.4076 44.9159 31.4167C45.0952 31.4348 45.2133 31.5281 45.2702 31.6964C45.2824 33.4654 45.2824 35.2343 45.2702 37.0032C45.223 37.1524 45.1231 37.2457 44.9704 37.283C44.3586 37.2951 43.7469 37.2951 43.1351 37.283C42.982 37.2452 42.882 37.152 42.8353 37.0032C42.8231 35.2403 42.8231 33.4774 42.8353 31.7145C42.8938 31.5427 43.0119 31.4405 43.1896 31.4076Z" fill="#0088CC"/>
<path opacity="0.984" fill-rule="evenodd" clip-rule="evenodd" d="M63.1057 31.4077C64.4745 31.4077 65.8436 31.4077 67.2124 31.4077C67.1401 31.9854 67.1401 32.563 67.2124 33.1406C65.8063 33.1494 64.4011 33.1403 62.9966 33.1135C62.8678 33.0517 62.786 32.9524 62.7513 32.8156C62.7391 32.4606 62.7391 32.1057 62.7513 31.7507C62.7957 31.5592 62.9138 31.4449 63.1057 31.4077Z" fill="#0088CC"/>
<path opacity="0.986" fill-rule="evenodd" clip-rule="evenodd" d="M73.7365 31.4077C75.3356 31.4077 76.9347 31.4077 78.5338 31.4077C78.5338 31.9853 78.5338 32.5629 78.5338 33.1406C76.9165 33.1436 75.2993 33.1406 73.682 33.1315C73.537 33.0959 73.4371 33.0086 73.3822 32.8698C73.37 32.4787 73.37 32.0876 73.3822 31.6965C73.4432 31.5295 73.5613 31.4333 73.7365 31.4077Z" fill="#0088CC"/>
<path opacity="0.963" fill-rule="evenodd" clip-rule="evenodd" d="M50.6133 38.8625C50.7102 38.8625 50.8071 38.8625 50.904 38.8625C50.904 39.374 50.904 39.8854 50.904 40.3968C50.8071 40.3968 50.7102 40.3968 50.6133 40.3968C50.6133 39.8854 50.6133 39.374 50.6133 38.8625Z" fill="#0088CC"/>
<path opacity="0.963" fill-rule="evenodd" clip-rule="evenodd" d="M49.7578 38.8535C49.8547 38.8535 49.9516 38.8535 50.0486 38.8535C50.0486 39.3649 50.0486 39.8764 50.0486 40.3878C49.9516 40.3878 49.8547 40.3878 49.7578 40.3878C49.7578 39.8764 49.7578 39.3649 49.7578 38.8535Z" fill="#0088CC"/>
<path opacity="0.883" fill-rule="evenodd" clip-rule="evenodd" d="M51.4668 38.8535C51.5637 38.8535 51.6606 38.8535 51.7575 38.8535C51.7575 38.9378 51.7575 39.022 51.7575 39.1062C51.6606 39.1062 51.5637 39.1062 51.4668 39.1062C51.4668 39.022 51.4668 38.9378 51.4668 38.8535Z" fill="#0088CC"/>
<path opacity="0.963" fill-rule="evenodd" clip-rule="evenodd" d="M66.5586 38.8625C66.6554 38.8625 66.7525 38.8625 66.8493 38.8625C66.8493 39.374 66.8493 39.8854 66.8493 40.3968C66.7525 40.3968 66.6554 40.3968 66.5586 40.3968C66.5586 39.8854 66.5586 39.374 66.5586 38.8625Z" fill="#0088CC"/>
<path opacity="0.883" fill-rule="evenodd" clip-rule="evenodd" d="M71.4648 38.8625C71.5617 38.8625 71.6587 38.8625 71.7556 38.8625C71.7556 38.9468 71.7556 39.031 71.7556 39.1153C71.6587 39.1153 71.5617 39.1153 71.4648 39.1153C71.4648 39.031 71.4648 38.9468 71.4648 38.8625Z" fill="#0088CC"/>
<path opacity="0.942" fill-rule="evenodd" clip-rule="evenodd" d="M46.0346 38.9348C46.1376 38.9348 46.2406 38.9348 46.3436 38.9348C46.3436 39.0311 46.3436 39.1274 46.3436 39.2236C46.5798 39.2236 46.816 39.2236 47.0522 39.2236C47.0522 39.3018 47.0522 39.3801 47.0522 39.4583C46.816 39.4583 46.5798 39.4583 46.3436 39.4583C46.3352 39.6827 46.3443 39.9053 46.3708 40.1261C46.4674 40.1618 46.5673 40.1708 46.6706 40.1532C46.7287 40.1347 46.7529 40.0956 46.7433 40.0359C46.8463 40.0359 46.9493 40.0359 47.0522 40.0359C47.0058 40.3183 46.8362 40.4446 46.5434 40.4149C46.3892 40.4252 46.2529 40.3831 46.1346 40.2886C46.1008 40.2455 46.0765 40.1974 46.0619 40.1442C46.0369 39.9164 46.0278 39.6877 46.0346 39.4583C45.9801 39.4583 45.9256 39.4583 45.8711 39.4583C45.8711 39.3801 45.8711 39.3018 45.8711 39.2236C45.9256 39.2236 45.9801 39.2236 46.0346 39.2236C46.0346 39.1274 46.0346 39.0311 46.0346 38.9348Z" fill="#0088CC"/>
<path opacity="0.942" fill-rule="evenodd" clip-rule="evenodd" d="M58.771 38.9348C58.8739 38.9348 58.9769 38.9348 59.0799 38.9348C59.0799 39.0311 59.0799 39.1274 59.0799 39.2236C59.3161 39.2236 59.5523 39.2236 59.7886 39.2236C59.7886 39.3018 59.7886 39.3801 59.7886 39.4583C59.5523 39.4583 59.3161 39.4583 59.0799 39.4583C59.0715 39.6827 59.0806 39.9053 59.1071 40.1261C59.2037 40.1618 59.3036 40.1708 59.407 40.1532C59.465 40.1347 59.4892 40.0956 59.4797 40.0359C59.5826 40.0359 59.6856 40.0359 59.7886 40.0359C59.7421 40.3183 59.5725 40.4446 59.2798 40.4149C59.1255 40.4252 58.9892 40.3831 58.8709 40.2886C58.8371 40.2455 58.8129 40.1974 58.7982 40.1442C58.7733 39.9164 58.7642 39.6877 58.771 39.4583C58.7165 39.4583 58.6619 39.4583 58.6074 39.4583C58.6074 39.3801 58.6074 39.3018 58.6074 39.2236C58.6619 39.2236 58.7165 39.2236 58.771 39.2236C58.771 39.1274 58.771 39.0311 58.771 38.9348Z" fill="#0088CC"/>
<path opacity="0.942" fill-rule="evenodd" clip-rule="evenodd" d="M69.812 38.9348C69.915 38.9348 70.0179 38.9348 70.1209 38.9348C70.1209 39.0311 70.1209 39.1274 70.1209 39.2236C70.3571 39.2236 70.5934 39.2236 70.8296 39.2236C70.8296 39.3018 70.8296 39.3801 70.8296 39.4583C70.5934 39.4583 70.3571 39.4583 70.1209 39.4583C70.1125 39.6827 70.1216 39.9053 70.1482 40.1261C70.2446 40.1618 70.3446 40.1708 70.448 40.1532C70.506 40.1347 70.5303 40.0956 70.5207 40.0359C70.6237 40.0359 70.7266 40.0359 70.8296 40.0359C70.7831 40.3183 70.6135 40.4446 70.3208 40.4149C70.1665 40.4252 70.0302 40.3831 69.9119 40.2886C69.8781 40.2455 69.854 40.1974 69.8392 40.1442C69.8143 39.9164 69.8053 39.6877 69.812 39.4583C69.7575 39.4583 69.703 39.4583 69.6484 39.4583C69.6484 39.3801 69.6484 39.3018 69.6484 39.2236C69.703 39.2236 69.7575 39.2236 69.812 39.2236C69.812 39.1274 69.812 39.0311 69.812 38.9348Z" fill="#0088CC"/>
<path opacity="0.909" fill-rule="evenodd" clip-rule="evenodd" d="M42.9531 38.9888C43.0561 38.9888 43.1591 38.9888 43.262 38.9888C43.262 39.4581 43.262 39.9274 43.262 40.3967C43.1591 40.3967 43.0561 40.3967 42.9531 40.3967C42.9531 39.9274 42.9531 39.4581 42.9531 38.9888Z" fill="#0088CC"/>
<path opacity="0.943" fill-rule="evenodd" clip-rule="evenodd" d="M62.0709 38.9889C62.495 38.9859 62.9189 38.9889 63.3429 38.9979C63.5079 39.0506 63.6049 39.1619 63.6336 39.3319C63.5313 39.3498 63.4285 39.3559 63.3247 39.3499C63.3267 39.3066 63.3085 39.2735 63.2702 39.2507C62.8946 39.2386 62.5191 39.2386 62.1435 39.2507C62.1223 39.2597 62.1072 39.2747 62.0981 39.2958C62.0859 39.368 62.0859 39.4402 62.0981 39.5124C62.1239 39.5297 62.1512 39.5447 62.1799 39.5575C62.5857 39.5635 62.9916 39.5696 63.3974 39.5756C63.5126 39.6058 63.5944 39.675 63.6427 39.7831C63.6874 39.9445 63.6752 40.101 63.6063 40.2525C63.5571 40.3175 63.4935 40.3626 63.4155 40.3878C62.9553 40.4239 62.4948 40.4239 62.0345 40.3878C61.8548 40.3047 61.7699 40.1633 61.7801 39.9636C61.8831 39.9636 61.986 39.9636 62.089 39.9636C62.0861 40.0121 62.089 40.0603 62.0981 40.108C62.1145 40.1297 62.1357 40.1448 62.1617 40.1532C62.5373 40.1652 62.9127 40.1652 63.2883 40.1532C63.359 40.1182 63.3892 40.0611 63.3792 39.9817C63.3907 39.8927 63.3543 39.8355 63.2702 39.8102C62.8644 39.8042 62.4585 39.7982 62.0527 39.7922C61.9008 39.7496 61.813 39.6503 61.7892 39.4943C61.7474 39.246 61.8414 39.0775 62.0709 38.9889Z" fill="#0088CC"/>
<path opacity="0.938" fill-rule="evenodd" clip-rule="evenodd" d="M47.9767 39.2055C48.2615 39.2025 48.5462 39.2055 48.8308 39.2145C49.0138 39.2279 49.1319 39.3212 49.1851 39.4943C49.1942 39.6386 49.1972 39.783 49.1942 39.9275C48.7641 39.9275 48.3341 39.9275 47.904 39.9275C47.901 39.982 47.9041 40.0361 47.9131 40.0899C47.9352 40.1179 47.9624 40.139 47.9949 40.1531C48.2675 40.1652 48.54 40.1652 48.8126 40.1531C48.8628 40.1333 48.8931 40.0972 48.9035 40.0448C49.0002 40.0358 49.0971 40.0328 49.1942 40.0358C49.1907 40.2108 49.1059 40.3281 48.9398 40.3878C48.6195 40.4163 48.2985 40.4223 47.9767 40.4058C47.8008 40.3933 47.6827 40.306 47.6224 40.1441C47.6103 39.9215 47.6103 39.6988 47.6224 39.4762C47.6863 39.3139 47.8044 39.2236 47.9767 39.2055ZM47.9949 39.4582C48.2675 39.4552 48.5401 39.4582 48.8126 39.4672C48.8864 39.5152 48.9167 39.5844 48.9035 39.6748C48.5703 39.6748 48.2372 39.6748 47.904 39.6748C47.8823 39.5777 47.9126 39.5055 47.9949 39.4582Z" fill="#0088CC"/>
<path opacity="0.937" fill-rule="evenodd" clip-rule="evenodd" d="M53.5563 40.884C53.2534 40.884 52.9505 40.884 52.6477 40.884C52.4546 40.8318 52.3516 40.7054 52.3388 40.5049C52.4359 40.5019 52.5328 40.505 52.6295 40.514C52.6406 40.5593 52.6648 40.5954 52.7022 40.6223C52.9687 40.6343 53.2352 40.6343 53.5017 40.6223C53.5164 40.6167 53.5285 40.6077 53.5381 40.5952C53.5583 40.512 53.5613 40.4277 53.5472 40.3425C53.5172 40.3645 53.4839 40.3795 53.4472 40.3876C53.1565 40.3997 52.8657 40.3997 52.575 40.3876C52.4564 40.342 52.3746 40.2608 52.3297 40.1439C52.3266 40.0326 52.3236 39.9213 52.3206 39.81C52.3186 39.6793 52.3276 39.5499 52.3478 39.4219C52.3995 39.3314 52.4752 39.2682 52.575 39.2324C52.8347 39.2043 53.0952 39.1983 53.3564 39.2143C53.427 39.2155 53.4906 39.2365 53.5472 39.2775C53.5559 39.2604 53.559 39.2424 53.5563 39.2234C53.6592 39.2234 53.7622 39.2234 53.8652 39.2234C53.8682 39.6747 53.8652 40.1259 53.8561 40.5771C53.8136 40.7367 53.7136 40.839 53.5563 40.884ZM52.7022 39.458C52.9765 39.4496 53.2491 39.4586 53.5199 39.4851C53.529 39.4941 53.5381 39.5031 53.5472 39.5122C53.5593 39.7107 53.5593 39.9093 53.5472 40.1078C53.5308 40.1295 53.5096 40.1446 53.4836 40.153C53.2093 40.1704 52.9367 40.1644 52.6659 40.1349C52.644 40.1186 52.6289 40.0976 52.6204 40.0717C52.6083 39.8912 52.6083 39.7107 52.6204 39.5302C52.6458 39.5019 52.6731 39.4778 52.7022 39.458Z" fill="#0088CC"/>
<path opacity="0.938" fill-rule="evenodd" clip-rule="evenodd" d="M54.7912 39.2055C55.0759 39.2025 55.3606 39.2055 55.6452 39.2145C55.8282 39.2279 55.9463 39.3212 55.9996 39.4943C56.0087 39.6386 56.0117 39.783 56.0087 39.9275C55.5786 39.9275 55.1485 39.9275 54.7185 39.9275C54.7155 39.982 54.7185 40.0361 54.7276 40.0899C54.7496 40.1179 54.7769 40.139 54.8093 40.1531C55.0819 40.1652 55.3545 40.1652 55.6271 40.1531C55.6773 40.1333 55.7076 40.0972 55.7179 40.0448C55.8146 40.0358 55.9116 40.0328 56.0087 40.0358C56.0052 40.2108 55.9204 40.3281 55.7543 40.3878C55.4339 40.4163 55.1129 40.4223 54.7912 40.4058C54.6153 40.3933 54.4971 40.306 54.4368 40.1441C54.4247 39.9215 54.4247 39.6988 54.4368 39.4762C54.5008 39.3139 54.6189 39.2236 54.7912 39.2055ZM54.8093 39.4582C55.082 39.4552 55.3546 39.4582 55.6271 39.4672C55.7009 39.5152 55.7312 39.5844 55.7179 39.6748C55.3848 39.6748 55.0516 39.6748 54.7185 39.6748C54.6967 39.5777 54.727 39.5055 54.8093 39.4582Z" fill="#0088CC"/>
<path opacity="0.958" fill-rule="evenodd" clip-rule="evenodd" d="M77.7881 39.2055C77.9847 39.187 78.1332 39.2592 78.2333 39.4221C78.2542 39.4743 78.2633 39.5284 78.2605 39.5845C78.1637 39.5845 78.0667 39.5845 77.9698 39.5845C77.9709 39.5293 77.9465 39.4902 77.8971 39.4672C77.6609 39.4552 77.4247 39.4552 77.1884 39.4672C77.0649 39.55 77.0709 39.6222 77.2066 39.6838C77.4792 39.6898 77.7517 39.6958 78.0243 39.7019C78.2873 39.8116 78.357 39.9951 78.2333 40.2524C78.1922 40.3053 78.1406 40.3444 78.0788 40.3697C77.7468 40.3991 77.4138 40.4051 77.0794 40.3878C76.9124 40.33 76.8275 40.2127 76.825 40.0358C76.9219 40.0358 77.0189 40.0358 77.1157 40.0358C77.1136 40.1009 77.1439 40.14 77.2066 40.1531C77.4428 40.1652 77.6791 40.1652 77.9153 40.1531C78.0314 40.0823 78.0314 40.0101 77.9153 39.9365C77.6367 39.9305 77.358 39.9245 77.0794 39.9185C76.8201 39.82 76.7443 39.6424 76.8523 39.386C76.9066 39.3139 76.9762 39.2628 77.0612 39.2325C77.3067 39.2295 77.549 39.2205 77.7881 39.2055Z" fill="#0088CC"/>
<path opacity="0.944" fill-rule="evenodd" clip-rule="evenodd" d="M43.834 39.2234C43.9309 39.2234 44.0278 39.2234 44.1247 39.2234C44.1207 39.2446 44.1268 39.2627 44.1429 39.2775C44.1732 39.2625 44.2035 39.2475 44.2338 39.2324C44.5003 39.2204 44.7668 39.2204 45.0333 39.2324C45.2014 39.2803 45.2892 39.3916 45.2968 39.5664C45.3059 39.8431 45.3089 40.1198 45.3059 40.3967C45.2029 40.3967 45.0999 40.3967 44.997 40.3967C45 40.1018 44.997 39.807 44.9879 39.5122C44.9666 39.4871 44.9393 39.472 44.9061 39.4671C44.682 39.455 44.4579 39.455 44.2338 39.4671C44.2005 39.472 44.1733 39.4871 44.152 39.5122C44.1431 39.8071 44.134 40.1019 44.1247 40.3967C44.0278 40.3967 43.9309 40.3967 43.834 40.3967C43.834 40.0056 43.834 39.6145 43.834 39.2234Z" fill="#0088CC"/>
<path opacity="0.969" fill-rule="evenodd" clip-rule="evenodd" d="M51.4668 39.2234C51.5637 39.2234 51.6606 39.2234 51.7575 39.2234C51.7575 39.6145 51.7575 40.0056 51.7575 40.3967C51.6606 40.3967 51.5637 40.3967 51.4668 40.3967C51.4668 40.0056 51.4668 39.6145 51.4668 39.2234Z" fill="#0088CC"/>
<path opacity="0.944" fill-rule="evenodd" clip-rule="evenodd" d="M56.5723 39.2234C56.6692 39.2234 56.7661 39.2234 56.863 39.2234C56.859 39.2446 56.8651 39.2627 56.8812 39.2775C56.9115 39.2625 56.9417 39.2475 56.972 39.2324C57.2386 39.2204 57.5051 39.2204 57.7716 39.2324C57.9397 39.2803 58.0275 39.3916 58.0351 39.5664C58.0442 39.8431 58.0472 40.1198 58.0442 40.3967C57.9412 40.3967 57.8382 40.3967 57.7352 40.3967C57.7383 40.1018 57.7352 39.807 57.7262 39.5122C57.7049 39.4871 57.6776 39.472 57.6444 39.4671C57.4203 39.455 57.1961 39.455 56.972 39.4671C56.9388 39.472 56.9115 39.4871 56.8903 39.5122C56.8814 39.8071 56.8723 40.1019 56.863 40.3967C56.7661 40.3967 56.6692 40.3967 56.5723 40.3967C56.5723 40.0056 56.5723 39.6145 56.5723 39.2234Z" fill="#0088CC"/>
<path opacity="0.953" fill-rule="evenodd" clip-rule="evenodd" d="M64.5591 39.2235C64.9106 39.2205 65.2618 39.2235 65.6131 39.2326C65.7494 39.2717 65.8371 39.3589 65.8766 39.4943C65.8887 39.7049 65.8887 39.9155 65.8766 40.1261C65.8231 40.2995 65.705 40.3927 65.5222 40.4058C65.2004 40.4226 64.8793 40.4166 64.5591 40.3878C64.4299 40.3525 64.3482 40.2712 64.3138 40.1441C64.3016 39.9215 64.3016 39.6989 64.3138 39.4762C64.3622 39.359 64.4439 39.2748 64.5591 39.2235ZM64.6863 39.4582C64.9727 39.4497 65.2575 39.4588 65.5404 39.4853C65.5657 39.5064 65.5809 39.5335 65.5858 39.5665C65.6025 39.7483 65.5965 39.9288 65.5677 40.108C65.5513 40.1297 65.53 40.1447 65.5041 40.1531C65.2177 40.1706 64.9329 40.1646 64.65 40.1351C64.6349 40.1201 64.6196 40.105 64.6046 40.09C64.5924 39.9034 64.5924 39.7169 64.6046 39.5304C64.63 39.5021 64.6573 39.478 64.6863 39.4582Z" fill="#0088CC"/>
<path opacity="0.96" fill-rule="evenodd" clip-rule="evenodd" d="M67.5572 39.2234C67.6541 39.2234 67.7511 39.2234 67.848 39.2234C67.8449 39.5122 67.848 39.8011 67.8571 40.0898C67.8754 40.1216 67.9027 40.1426 67.9388 40.153C68.1691 40.165 68.3991 40.165 68.6294 40.153C68.6553 40.1446 68.6766 40.1295 68.693 40.1079C68.7195 39.8143 68.7286 39.5195 68.7202 39.2234C68.8171 39.2234 68.9141 39.2234 69.011 39.2234C69.011 39.6145 69.011 40.0056 69.011 40.3967C68.9141 40.3967 68.8171 40.3967 68.7202 40.3967C68.7229 40.3777 68.7198 40.3596 68.7111 40.3425C68.6811 40.3645 68.6479 40.3795 68.6112 40.3876C68.3446 40.3997 68.0782 40.3997 67.8116 40.3876C67.6813 40.3546 67.5996 40.2733 67.5663 40.144C67.536 39.8371 67.5329 39.5303 67.5572 39.2234Z" fill="#0088CC"/>
<path opacity="0.969" fill-rule="evenodd" clip-rule="evenodd" d="M71.4648 39.2234C71.5617 39.2234 71.6587 39.2234 71.7556 39.2234C71.7556 39.6145 71.7556 40.0056 71.7556 40.3967C71.6587 40.3967 71.5617 40.3967 71.4648 40.3967C71.4648 40.0056 71.4648 39.6145 71.4648 39.2234Z" fill="#0088CC"/>
<path opacity="0.953" fill-rule="evenodd" clip-rule="evenodd" d="M72.6998 39.2235C73.0512 39.2205 73.4025 39.2235 73.7537 39.2326C73.89 39.2717 73.9778 39.3589 74.0172 39.4943C74.0294 39.7049 74.0294 39.9155 74.0172 40.1261C73.9638 40.2995 73.8457 40.3927 73.6628 40.4058C73.341 40.4226 73.0199 40.4166 72.6998 40.3878C72.5706 40.3525 72.4888 40.2712 72.4544 40.1441C72.4423 39.9215 72.4423 39.6989 72.4544 39.4762C72.5028 39.359 72.5846 39.2748 72.6998 39.2235ZM72.827 39.4582C73.1133 39.4497 73.3981 39.4588 73.681 39.4853C73.7063 39.5064 73.7215 39.5335 73.7264 39.5665C73.7432 39.7483 73.7372 39.9288 73.7083 40.108C73.6919 40.1297 73.6707 40.1447 73.6447 40.1531C73.3583 40.1706 73.0735 40.1646 72.7906 40.1351C72.7755 40.1201 72.7603 40.105 72.7452 40.09C72.733 39.9034 72.733 39.7169 72.7452 39.5304C72.7706 39.5021 72.7979 39.478 72.827 39.4582Z" fill="#0088CC"/>
<path opacity="0.944" fill-rule="evenodd" clip-rule="evenodd" d="M74.6992 39.2234C74.7961 39.2234 74.8931 39.2234 74.99 39.2234C74.986 39.2446 74.992 39.2627 75.0081 39.2775C75.0385 39.2625 75.0686 39.2475 75.099 39.2324C75.3656 39.2204 75.632 39.2204 75.8985 39.2324C76.0666 39.2803 76.1544 39.3916 76.162 39.5664C76.1711 39.8431 76.1742 40.1198 76.1711 40.3967C76.0681 40.3967 75.9652 40.3967 75.8622 40.3967C75.8653 40.1018 75.8622 39.807 75.8531 39.5122C75.8318 39.4871 75.8046 39.472 75.7713 39.4671C75.5473 39.455 75.323 39.455 75.099 39.4671C75.0657 39.472 75.0385 39.4871 75.0172 39.5122C75.0083 39.8071 74.9992 40.1019 74.99 40.3967C74.8931 40.3967 74.7961 40.3967 74.6992 40.3967C74.6992 40.0056 74.6992 39.6145 74.6992 39.2234Z" fill="#0088CC"/>
<defs>
<linearGradient id="paint0_linear_2206_12004" x1="122.075" y1="221.832" x2="138.875" y2="250.932" gradientUnits="userSpaceOnUse">
<stop offset="0.3534" stop-color="#24303A"/>
<stop offset="1" stop-color="#060A0E"/>
</linearGradient>
<linearGradient id="paint1_linear_2206_12004" x1="356.488" y1="132.635" x2="369.213" y2="187.689" gradientUnits="userSpaceOnUse">
<stop stop-color="#38E2C3"/>
<stop offset="1" stop-color="#00A587"/>
</linearGradient>
<linearGradient id="paint2_linear_2206_12004" x1="376.127" y1="155.964" x2="382.003" y2="181.386" gradientUnits="userSpaceOnUse">
<stop stop-color="#38E2C3"/>
<stop offset="1" stop-color="#00A587"/>
</linearGradient>
<linearGradient id="paint3_linear_2206_12004" x1="390.808" y1="137.569" x2="402.086" y2="186.365" gradientUnits="userSpaceOnUse">
<stop stop-color="#38E2C3"/>
<stop offset="1" stop-color="#00A587"/>
</linearGradient>
</defs>
</svg>
