<svg width="381" height="384" viewBox="0 0 381 384" fill="none" xmlns="http://www.w3.org/2000/svg">
<path d="M259.377 188.98L259.379 188.978C263.135 186.295 269.839 180.287 274.39 175.582L274.39 175.581C300.658 148.467 316.709 107.297 318.947 60.9918C319.217 55.1344 319.101 49.0656 318.717 44.2642C318.524 41.8624 318.265 39.788 317.956 38.2202C317.801 37.4356 317.636 36.789 317.465 36.2963C317.287 35.7855 317.124 35.5034 317.005 35.3851C317.009 35.3884 316.943 35.3362 316.731 35.2161C316.542 35.1089 316.28 34.9711 315.947 34.8036C315.281 34.4692 314.35 34.0258 313.188 33.4885C310.864 32.4144 307.633 30.9717 303.793 29.2872C296.115 25.9184 286.013 21.5864 275.898 17.3095C265.784 13.0326 255.658 8.81174 247.931 5.66524C244.067 4.09181 240.806 2.78799 238.446 1.88034C237.266 1.4263 236.315 1.07289 235.629 0.834763C235.285 0.715469 235.013 0.627029 234.815 0.56958C234.772 0.55722 234.734 0.546616 234.7 0.537628C234.654 0.52565 234.617 0.516556 234.586 0.51001C234.575 0.507645 234.566 0.505829 234.559 0.50444C234.525 0.51326 234.448 0.533936 234.312 0.577988C234.127 0.637787 233.875 0.72612 233.555 0.842697C232.918 1.07555 232.029 1.4155 230.917 1.85181C228.694 2.72409 225.586 3.97723 221.822 5.51866C214.294 8.60129 204.146 12.8344 193.205 17.4736C181.105 22.6154 171.017 27.0024 163.849 30.2289C160.264 31.8424 157.414 33.1642 155.407 34.1444C154.404 34.6348 153.617 35.0371 153.057 35.3463C152.776 35.5011 152.559 35.6293 152.402 35.7311C152.243 35.8342 152.184 35.8866 152.176 35.8947C151.873 36.2787 151.593 36.9716 151.385 38.1987C151.178 39.4239 151.05 41.1206 151.007 43.4506C150.92 48.1088 151.171 55.2259 151.751 66.0145C153.489 97.6917 158.104 121.514 166.968 140.552C175.826 159.576 188.943 173.854 207.749 186.417C212.602 189.653 219.043 193.375 224.6 196.288C227.378 197.745 229.929 198.996 231.945 199.881C232.953 200.324 233.821 200.673 234.513 200.91C235.225 201.154 235.693 201.258 235.929 201.258C236.185 201.258 236.634 201.168 237.278 200.965C237.907 200.766 238.68 200.474 239.565 200.103C241.333 199.361 243.521 198.314 245.858 197.1C250.534 194.67 255.769 191.59 259.377 188.98ZM306.496 42.6136L306.744 42.7186L306.792 42.9836L307.488 46.7729L307.489 46.7782C307.692 47.9524 307.753 50.1874 307.712 52.999C307.67 55.8267 307.525 59.2809 307.302 62.9206C306.857 70.1965 306.102 78.2385 305.248 83.5208C300.906 110.346 290.749 135.707 276.394 155.881L276.393 155.883C267.227 168.621 252.008 181.83 239.852 187.441C239.852 187.441 239.851 187.441 239.851 187.442L235.91 189.296L235.683 189.403L235.461 189.284L227.805 185.186C227.805 185.186 227.805 185.186 227.805 185.186C203.454 172.157 187.979 157.319 177.87 137.1L177.869 137.099C172.268 125.819 167.385 107.663 165.139 89.3015L165.139 89.3009C164.518 84.1808 163.744 74.0565 163.183 64.7859C162.903 60.1485 162.675 55.7195 162.547 52.2307C162.483 50.4866 162.444 48.9747 162.435 47.7881C162.426 46.6184 162.447 45.7328 162.509 45.256C162.542 44.9676 162.6 44.6614 162.768 44.339C162.935 44.017 163.192 43.713 163.575 43.3926C164.326 42.7646 165.637 42.009 167.94 40.8937C172.565 38.654 181.376 34.8779 198.227 27.6891L198.228 27.6887C207.896 23.5896 216.81 19.8579 223.365 17.1411C226.642 15.7827 229.331 14.6778 231.229 13.9074C232.178 13.5224 232.931 13.2204 233.462 13.0119C233.728 12.9079 233.94 12.8263 234.094 12.7691C234.118 12.76 234.142 12.7513 234.164 12.7432C234.211 12.7262 234.252 12.7115 234.287 12.6997C234.323 12.6875 234.393 12.6638 234.455 12.6535L234.455 12.6534L234.466 12.6518C234.544 12.6407 234.61 12.6486 234.638 12.6523C234.676 12.6571 234.712 12.6643 234.744 12.6716C234.809 12.6862 234.884 12.7075 234.967 12.7325C235.132 12.7831 235.354 12.8587 235.624 12.9559C236.167 13.1511 236.93 13.442 237.887 13.8171C239.801 14.5677 242.503 15.6612 245.795 17.0149C252.381 19.7224 261.333 23.4738 271.078 27.6115L306.496 42.6136Z" fill="#0088CC" stroke="#0088CC"/>
<path d="M250.201 83.7955L250.202 83.7952C257.823 76.212 262.16 71.9729 264.86 69.628C267.579 67.2671 268.535 66.9278 269.414 66.9278C270.963 66.9278 272.31 67.5564 273.468 68.7147C274.626 69.873 275.255 71.2198 275.255 72.769C275.255 73.6477 274.916 74.6034 272.535 77.3522C270.171 80.0818 265.893 84.4759 258.233 92.2133C253.481 96.9654 248.826 101.465 245.158 104.882C243.324 106.591 241.739 108.027 240.513 109.087C239.9 109.617 239.379 110.051 238.964 110.377C238.541 110.709 238.254 110.908 238.096 110.991C236.934 111.591 235.962 111.936 234.829 112.11C233.684 112.285 232.355 112.288 230.47 112.173L250.201 83.7955ZM250.201 83.7955C244.401 89.5572 240.006 93.8169 236.914 96.6375M250.201 83.7955L236.914 96.6375M211.617 82.0491L211.615 82.0484C207.903 80.5493 203.563 83.4293 203.563 87.23C203.563 88.0342 203.891 88.9703 205.15 90.7063C206.407 92.4397 208.535 94.8945 212.017 98.7253L212.018 98.7264C217.483 104.772 220.576 108.032 223.076 109.841C225.521 111.61 227.386 111.983 230.469 112.173L211.617 82.0491ZM211.617 82.0491C211.617 82.0492 211.617 82.0492 211.617 82.0492C211.617 82.0499 211.636 82.0594 211.676 82.087C211.727 82.1223 211.795 82.1741 211.882 82.2447C212.054 82.3855 212.28 82.5855 212.555 82.8413C213.104 83.3521 213.83 84.0684 214.683 84.9406C216.388 86.684 218.586 89.037 220.863 91.5843M211.617 82.0491L220.863 91.5843M236.914 96.6375C235.369 98.0468 234.141 99.1043 233.222 99.8119M236.914 96.6375L233.222 99.8119M233.222 99.8119C232.763 100.165 232.371 100.439 232.048 100.627M233.222 99.8119L232.048 100.627M232.048 100.627C231.886 100.721 231.733 100.799 231.591 100.855M232.048 100.627L231.591 100.855M231.591 100.855C231.454 100.908 231.296 100.954 231.135 100.954M231.591 100.855L231.135 100.954M231.135 100.954C230.894 100.954 230.646 100.881 230.407 100.776M231.135 100.954L230.407 100.776M230.407 100.776C230.163 100.669 229.898 100.515 229.612 100.321M230.407 100.776L229.612 100.321M229.612 100.321C229.04 99.9333 228.347 99.3581 227.527 98.5967M229.612 100.321L227.527 98.5967M227.527 98.5967C225.886 97.0723 223.689 94.7576 220.863 91.5843M227.527 98.5967L220.863 91.5843" fill="#0088CC" stroke="#0088CC"/>
<path d="M110.91 238.537C104.163 240.321 95.8637 244.586 71.3549 258.78L48.4748 272.043L47.0011 269.561C42.8129 262.503 41.8046 261.339 38.392 259.711C32.2648 256.763 27.9215 257.617 16.2875 264.209C2.55948 272.043 1.64016e-05 274.912 1.64016e-05 282.513C1.64016e-05 286.779 -0.155103 286.546 29.7053 339.209C55.0673 384.039 54.6795 383.496 62.9009 384.349C66.7013 384.737 67.632 384.426 72.9061 381.712C86.1687 374.887 91.5979 371.164 93.692 367.596C97.2598 361.546 96.4842 356.427 90.6672 346.888L89.2711 344.561L93.5369 342.079C95.9413 340.683 98.3456 339.597 98.8885 339.597C99.509 339.597 117.503 344.328 138.987 350.223L177.999 360.771L186.919 360.848C202.431 361.003 195.062 364.726 274.949 315.631C324.975 284.918 326.681 283.677 329.163 275.61C331.257 269.095 330.637 260.564 327.689 255.135C320.244 241.484 302.948 239.235 282.705 249.395C279.758 250.946 263.315 260.254 246.252 270.259C229.111 280.186 213.909 288.873 212.358 289.494L209.566 290.657L210.652 287.089C213.056 279.023 211.35 271.345 205.766 265.14C201.112 259.943 198.63 258.78 185.29 255.522C173.423 252.653 166.753 250.559 143.098 242.337C129.292 237.529 128.051 237.218 121.769 237.296C118.123 237.296 113.237 237.839 110.91 238.537ZM136.893 253.196C159.618 261.184 170.011 264.519 180.714 267.156C193.744 270.414 195.76 271.345 197.777 274.68C200.569 279.256 199.096 286.546 194.907 288.64C189.478 291.433 187.306 291.122 162.41 284.219C153.878 281.815 146.122 279.876 145.114 279.876C142.865 279.876 139.607 283.211 139.607 285.616C139.607 290.269 140.848 291.045 153.18 294.457C192.193 305.393 203.439 306.557 216.314 301.283C218.718 300.352 235.471 290.89 253.62 280.264C271.769 269.716 288.832 260.098 291.624 258.857C307.524 252.11 317.994 255.522 317.994 267.467C317.994 269.638 317.452 272.43 316.831 273.594C315.28 276.619 205.223 344.561 197.777 347.12C190.797 349.525 184.592 349.37 174.121 346.655C169.468 345.414 150.543 340.373 132.084 335.409C113.625 330.445 97.9578 326.412 97.2598 326.412C96.5617 326.412 93.1491 328.041 89.7365 329.98C86.4014 331.919 83.299 333.237 82.9888 332.849C81.9805 331.764 55.0673 283.909 55.0673 283.211C55.0673 282.591 91.9082 260.952 102.379 255.522C115.874 248.387 122.079 247.999 136.893 253.196ZM58.6351 315.398C76.784 347.353 83.6093 360.15 83.1439 361.003C82.2132 362.632 65.1501 372.25 63.6765 372.017C62.1253 371.707 12.332 283.909 12.5647 281.97C12.8749 280.186 29.24 270.647 31.7219 270.802C33.2731 270.957 37.1511 277.317 58.6351 315.398Z" fill="#0088CC"/>
<path d="M25.1296 283.211C21.0189 286.779 23.4233 293.294 28.7749 293.294C31.3344 293.294 34.9021 290.269 34.9021 288.02C34.9021 285.926 33.1182 283.134 31.2568 282.28C28.5422 281.04 27.4564 281.195 25.1296 283.211Z" fill="#0088CC"/>
</svg>
