<svg width="60" height="60" viewBox="0 0 60 60" fill="none" xmlns="http://www.w3.org/2000/svg">
<path d="M47.4998 17.5C47.4998 18 47.4998 18.25 47.4998 18.75C47.2498 22.5 45.4998 25.75 43.2498 28C40.4998 30.75 36.7498 32.5 32.4998 32.5H24.7498C23.4998 32.5 22.4998 33.5 22.2498 34.75L20.2498 48C19.9998 49 19.4998 49.75 18.4998 50C18.2498 50 17.9998 50 17.7498 50H12.9998C11.4998 50 10.2498 48.75 10.4998 47L16.4998 11.25C16.9998 7.75 20.2498 5 23.7498 5H34.9998C41.9998 5 47.4998 10.5 47.4998 17.5Z" stroke="#0088cc" stroke-width="3.5" stroke-miterlimit="10"/>
<path d="M52.4998 27.5C52.4998 31 50.9998 34 48.7498 36.25C46.4998 38.5 43.4998 40 39.9998 40H34.7498C33.4998 40 32.4998 40.75 32.2498 42L30.4998 52.75C30.2498 54 29.2498 54.75 27.9998 54.75H20.4998C18.9998 54.75 17.7498 53.25 17.9998 51.75L18.4998 50C19.4998 49.75 20.2498 49 20.2498 48L22.2498 34.75C22.4998 33.5 23.4998 32.5 24.7498 32.5H32.4998C36.7498 32.5 40.4998 30.75 42.9998 28C45.4998 25.5 46.9998 22.25 47.2498 18.75C50.4998 20.5 52.4998 23.75 52.4998 27.5Z" stroke="#0088cc" stroke-width="3.5" stroke-miterlimit="10"/>
</svg>
