<svg width="60" height="60" viewBox="0 0 60 60" fill="none" xmlns="http://www.w3.org/2000/svg">
<path d="M54.5248 9.84969C50.6748 19.4497 41.0248 32.4997 32.9498 38.9747L28.0248 42.9247C27.3998 43.3747 26.7748 43.7747 26.0748 44.0497C26.0748 43.5997 26.0498 43.0997 25.9748 42.6247C25.6998 40.5247 24.7498 38.5747 23.0748 36.8997C21.3748 35.1997 19.2998 34.1997 17.1748 33.9247C16.6748 33.8997 16.1748 33.8497 15.6748 33.8997C15.9498 33.1247 16.3748 32.3997 16.8998 31.7997L20.7998 26.8747C27.2498 18.7997 40.3498 9.09969 49.9248 5.27469C51.3998 4.72469 52.8248 5.12469 53.7248 6.04969C54.6748 6.97469 55.1248 8.39969 54.5248 9.84969Z" stroke="#0088cc" stroke-width="3.5" stroke-linecap="round" stroke-linejoin="round"/>
<path d="M26.0752 44.05C26.0752 46.8 25.0252 49.425 23.0502 51.425C21.5252 52.95 19.4502 54 16.9752 54.325L10.8252 55C7.4752 55.375 4.6002 52.525 5.0002 49.125L5.6752 42.975C6.2752 37.5 10.8502 34 15.7002 33.9C16.2002 33.875 16.7252 33.9 17.2002 33.925C19.3252 34.2 21.4002 35.175 23.1002 36.9C24.7752 38.575 25.7252 40.525 26.0002 42.625C26.0252 43.1 26.0752 43.575 26.0752 44.05Z" stroke="#0088cc" stroke-width="3.5" stroke-linecap="round" stroke-linejoin="round"/>
<path d="M35.6004 36.1746C35.6004 29.6496 30.3004 24.3496 23.7754 24.3496" stroke="#0088cc" stroke-width="3.5" stroke-linecap="round" stroke-linejoin="round"/>
</svg>
