<svg width="60" height="60" viewBox="0 0 60 60" fill="none" xmlns="http://www.w3.org/2000/svg">
<path d="M47.5 40V16.25C47.5 13.5 45.25 11.25 42.5 11.25H31.25" stroke="#0088cc" stroke-width="3.5" stroke-linecap="round" stroke-linejoin="round"/>
<path d="M37.5 5L30 11.25L37.5 17.5" stroke="#0088cc" stroke-width="3.5" stroke-linecap="round" stroke-linejoin="round"/>
<path d="M12.5 22.5V40" stroke="#0088cc" stroke-width="3.5" stroke-linecap="round" stroke-linejoin="round"/>
<path d="M13.125 21.25C17.6123 21.25 21.25 17.6123 21.25 13.125C21.25 8.63769 17.6123 5 13.125 5C8.63769 5 5 8.63769 5 13.125C5 17.6123 8.63769 21.25 13.125 21.25Z" stroke="#0088cc" stroke-width="3.5" stroke-linecap="round" stroke-linejoin="round"/>
<path d="M12.5 55C16.6421 55 20 51.6421 20 47.5C20 43.3579 16.6421 40 12.5 40C8.35786 40 5 43.3579 5 47.5C5 51.6421 8.35786 55 12.5 55Z" stroke="#0088cc" stroke-width="3.5" stroke-linecap="round" stroke-linejoin="round"/>
<path d="M47.5 55C51.6421 55 55 51.6421 55 47.5C55 43.3579 51.6421 40 47.5 40C43.3579 40 40 43.3579 40 47.5C40 51.6421 43.3579 55 47.5 55Z" stroke="#0088cc" stroke-width="3.5" stroke-linecap="round" stroke-linejoin="round"/>
</svg>
