<svg width="403" height="112" viewBox="0 0 403 112" fill="none" xmlns="http://www.w3.org/2000/svg">
<path opacity="0.99" fill-rule="evenodd" clip-rule="evenodd" d="M35.8395 0C51.121 0 66.4026 0 81.6841 0C95.1236 0.532232 106.348 5.72429 115.358 15.5762C116.612 17.0296 117.757 18.5626 118.793 20.1748C118.892 20.3726 118.892 20.5705 118.793 20.7682C112.87 32.4339 112.073 44.4498 116.403 56.8159C117.173 58.8858 118.044 60.9132 119.017 62.8981C112.393 74.8472 102.188 81.3496 88.404 82.4054C70.982 82.5043 53.5602 82.5043 36.1382 82.4054C34.5702 82.0345 33.5996 81.0703 33.2262 79.5126C33.1266 75.359 33.1266 71.2053 33.2262 67.0517C33.5836 65.2136 34.7036 64.1998 36.5862 64.0106C53.7095 63.9612 70.8327 63.9117 87.956 63.8623C91.8407 63.3053 95.101 61.5993 97.7371 58.7444C101.122 54.9871 103.412 50.6358 104.606 45.6901C106.016 35.3146 102.258 27.3782 93.3319 21.8808C89.9879 20.0154 86.404 18.9274 82.5801 18.6172C66.9003 18.5678 51.2206 18.5183 35.5409 18.4689C33.9729 18.098 33.0022 17.1338 32.6289 15.5762C32.5293 11.4225 32.5293 7.26888 32.6289 3.11523C32.9931 1.34397 34.0634 0.305554 35.8395 0Z" fill="#0088CC"/>
<path opacity="0.993" fill-rule="evenodd" clip-rule="evenodd" d="M307.772 0C315.637 0 323.501 0 331.366 0C343.138 0.123567 354.935 0.197739 366.758 0.222517C379.215 1.32424 388.748 7.08496 395.354 17.5046C399.159 23.6273 401.425 30.2532 402.149 37.3828C402.149 39.2619 402.149 41.1408 402.149 43.0199C400.366 57.568 393 68.323 380.048 75.2848C374.051 78.3564 367.681 80.0378 360.934 80.3285C348.938 80.3779 336.941 80.4275 324.945 80.4769C323.464 80.9094 322.544 81.8737 322.182 83.3696C322.133 90.6879 322.082 98.0063 322.033 105.325C321.597 106.795 320.626 107.71 319.121 108.069C315.032 108.212 310.95 108.163 306.876 107.921C305.617 107.412 304.845 106.497 304.561 105.176C304.461 71.1559 304.461 37.1355 304.561 3.11523C304.926 1.34397 305.996 0.305554 307.772 0ZM324.796 16.4662C336.941 16.4415 349.087 16.4662 361.232 16.5404C369.425 17.43 375.921 21.1633 380.72 27.7404C385.697 36.0201 385.797 44.3769 381.019 52.8106C379.194 56.1669 376.73 58.9607 373.627 61.1921C371.376 62.5803 368.936 63.4704 366.31 63.8623C352.574 64.1062 338.836 64.1556 325.094 64.0106C323.461 63.624 322.49 62.6104 322.182 60.9696C322.082 47.1241 322.082 33.2786 322.182 19.4331C322.559 17.9977 323.429 17.0089 324.796 16.4662Z" fill="#0088CC"/>
<path opacity="0.988" fill-rule="evenodd" clip-rule="evenodd" d="M0 13.3511C0 12.2138 0 11.0765 0 9.93923C1.18984 4.48042 4.57466 1.34045 10.1545 0.519353C15.2195 -0.164121 19.2762 1.49239 22.325 5.48889C24.2044 8.73694 24.5528 12.1489 23.3703 15.7247C21.598 19.8077 18.487 22.1564 14.0371 22.771C9.635 23.4411 5.87684 22.2296 2.76262 19.1366C1.35481 17.4278 0.433933 15.4993 0 13.3511Z" fill="#0088CC"/>
<path opacity="0.991" fill-rule="evenodd" clip-rule="evenodd" d="M162.323 1.18652C183.129 1.16179 203.937 1.18652 224.743 1.26069C218.208 5.47731 212.883 10.8672 208.765 17.4302C192.835 17.4796 176.908 17.5292 160.979 17.5786C152.37 18.9962 146.123 23.5701 142.238 31.3004C138.415 40.6022 139.659 49.1568 145.971 56.964C150.27 61.683 155.621 64.3779 162.024 65.0488C177.454 65.0736 192.886 65.1478 208.317 65.2713C211.654 71.6058 216.185 76.9462 221.906 81.2925C201.149 81.4657 180.392 81.4903 159.635 81.3667C145.669 80.7033 135.241 74.3987 128.35 62.4528C123.564 54.2081 121.722 45.357 122.825 35.8991C125.133 23.0298 131.978 13.3626 143.358 6.89778C149.298 3.68046 155.619 1.77671 162.323 1.18652Z" fill="#0088CC"/>
<path opacity="0.992" fill-rule="evenodd" clip-rule="evenodd" d="M252.221 1.18701C266.606 1.18701 280.992 1.18701 295.377 1.18701C295.377 6.62631 295.377 12.0656 295.377 17.5049C279.947 17.4801 264.515 17.5049 249.085 17.5791C239.189 19.3665 232.593 24.9788 229.298 34.4162C226.766 44.6187 229.479 53.1485 237.437 60.0056C241.212 62.9179 245.493 64.5992 250.279 65.0493C265.312 65.1235 280.344 65.1482 295.377 65.1235C295.377 70.5628 295.377 76.002 295.377 81.4414C279.149 81.4661 262.923 81.4414 246.695 81.3672C233.02 80.1806 222.94 73.6286 216.456 61.7115C211.152 52.2028 209.758 42.1648 212.275 31.5976C216.086 19.1581 223.975 10.2821 235.944 4.96979C241.169 2.77032 246.594 1.5094 252.221 1.18701Z" fill="#0088CC"/>
<path opacity="0.994" fill-rule="evenodd" clip-rule="evenodd" d="M4.92754 34.1192C9.65661 34.0944 14.3854 34.1192 19.114 34.1933C20.5877 34.3429 21.5584 35.1094 22.0259 36.4927C22.1255 51.0304 22.1255 65.5682 22.0259 80.1059C21.6378 81.3322 20.8165 82.0985 19.562 82.4053C14.5345 82.5042 9.50702 82.5042 4.47955 82.4053C3.22113 82.0945 2.39982 81.3281 2.01559 80.1059C1.91603 65.6176 1.91603 51.1294 2.01559 36.641C2.49685 35.2297 3.4675 34.389 4.92754 34.1192Z" fill="#0088CC"/>
<path opacity="0.984" fill-rule="evenodd" clip-rule="evenodd" d="M168.595 34.1191C179.844 34.1191 191.095 34.1191 202.344 34.1191C201.75 38.8665 201.75 43.6135 202.344 48.3602C190.789 48.4326 179.241 48.3584 167.699 48.1377C166.641 47.6302 165.969 46.8143 165.683 45.69C165.583 42.7725 165.583 39.8552 165.683 36.9377C166.048 35.3645 167.018 34.4249 168.595 34.1191Z" fill="#0088CC"/>
<path opacity="0.986" fill-rule="evenodd" clip-rule="evenodd" d="M255.954 34.1191C269.095 34.1191 282.236 34.1191 295.377 34.1191C295.377 38.8662 295.377 43.6132 295.377 48.3602C282.087 48.385 268.796 48.3602 255.506 48.286C254.314 47.9931 253.493 47.2761 253.042 46.135C252.942 42.9209 252.942 39.7068 253.042 36.4927C253.544 35.1203 254.514 34.3292 255.954 34.1191Z" fill="#0088CC"/>
<path opacity="0.963" fill-rule="evenodd" clip-rule="evenodd" d="M65.9297 95.3853C66.7261 95.3853 67.5226 95.3853 68.319 95.3853C68.319 99.5883 68.319 103.791 68.319 107.995C67.5226 107.995 66.7261 107.995 65.9297 107.995C65.9297 103.791 65.9297 99.5883 65.9297 95.3853Z" fill="#0088CC"/>
<path opacity="0.963" fill-rule="evenodd" clip-rule="evenodd" d="M58.9111 95.311C59.7075 95.311 60.504 95.311 61.3004 95.311C61.3004 99.5141 61.3004 103.717 61.3004 107.92C60.504 107.92 59.7075 107.92 58.9111 107.92C58.9111 103.717 58.9111 99.5141 58.9111 95.311Z" fill="#0088CC"/>
<path opacity="0.883" fill-rule="evenodd" clip-rule="evenodd" d="M72.9482 95.311C73.7446 95.311 74.5412 95.311 75.3375 95.311C75.3375 96.0034 75.3375 96.6955 75.3375 97.3879C74.5412 97.3879 73.7446 97.3879 72.9482 97.3879C72.9482 96.6955 72.9482 96.0034 72.9482 95.311Z" fill="#0088CC"/>
<path opacity="0.963" fill-rule="evenodd" clip-rule="evenodd" d="M196.967 95.3853C197.763 95.3853 198.561 95.3853 199.357 95.3853C199.357 99.5883 199.357 103.791 199.357 107.995C198.561 107.995 197.763 107.995 196.967 107.995C196.967 103.791 196.967 99.5883 196.967 95.3853Z" fill="#0088CC"/>
<path opacity="0.883" fill-rule="evenodd" clip-rule="evenodd" d="M237.286 95.3853C238.082 95.3853 238.879 95.3853 239.675 95.3853C239.675 96.0776 239.675 96.7698 239.675 97.4621C238.879 97.4621 238.082 97.4621 237.286 97.4621C237.286 96.7698 237.286 96.0776 237.286 95.3853Z" fill="#0088CC"/>
<path opacity="0.942" fill-rule="evenodd" clip-rule="evenodd" d="M28.2986 95.979C29.1448 95.979 29.9909 95.979 30.8372 95.979C30.8372 96.7701 30.8372 97.5614 30.8372 98.3525C32.7785 98.3525 34.7198 98.3525 36.6611 98.3525C36.6611 98.9953 36.6611 99.6382 36.6611 100.281C34.7198 100.281 32.7785 100.281 30.8372 100.281C30.7685 102.126 30.8432 103.955 31.0612 105.77C31.8546 106.063 32.6759 106.137 33.5251 105.992C34.002 105.84 34.201 105.519 34.1225 105.028C34.9687 105.028 35.8148 105.028 36.6611 105.028C36.2796 107.349 34.8857 108.387 32.4798 108.143C31.212 108.228 30.092 107.881 29.1199 107.105C28.842 106.751 28.6429 106.355 28.5226 105.918C28.3174 104.046 28.2427 102.167 28.2986 100.281C27.8506 100.281 27.4026 100.281 26.9546 100.281C26.9546 99.6382 26.9546 98.9953 26.9546 98.3525C27.4026 98.3525 27.8506 98.3525 28.2986 98.3525C28.2986 97.5614 28.2986 96.7701 28.2986 95.979Z" fill="#0088CC"/>
<path opacity="0.942" fill-rule="evenodd" clip-rule="evenodd" d="M132.979 95.979C133.825 95.979 134.671 95.979 135.517 95.979C135.517 96.7701 135.517 97.5614 135.517 98.3525C137.459 98.3525 139.4 98.3525 141.341 98.3525C141.341 98.9953 141.341 99.6382 141.341 100.281C139.4 100.281 137.459 100.281 135.517 100.281C135.449 102.126 135.523 103.955 135.741 105.77C136.535 106.063 137.356 106.137 138.205 105.992C138.682 105.84 138.881 105.519 138.803 105.028C139.649 105.028 140.495 105.028 141.341 105.028C140.96 107.349 139.566 108.387 137.16 108.143C135.892 108.228 134.772 107.881 133.8 107.105C133.522 106.751 133.323 106.355 133.203 105.918C132.998 104.046 132.923 102.167 132.979 100.281C132.531 100.281 132.083 100.281 131.635 100.281C131.635 99.6382 131.635 98.9953 131.635 98.3525C132.083 98.3525 132.531 98.3525 132.979 98.3525C132.979 97.5614 132.979 96.7701 132.979 95.979Z" fill="#0088CC"/>
<path opacity="0.942" fill-rule="evenodd" clip-rule="evenodd" d="M223.698 95.979C224.545 95.979 225.39 95.979 226.237 95.979C226.237 96.7701 226.237 97.5614 226.237 98.3525C228.178 98.3525 230.119 98.3525 232.061 98.3525C232.061 98.9953 232.061 99.6382 232.061 100.281C230.119 100.281 228.178 100.281 226.237 100.281C226.168 102.126 226.243 103.955 226.461 105.77C227.254 106.063 228.075 106.137 228.925 105.992C229.401 105.84 229.601 105.519 229.522 105.028C230.369 105.028 231.214 105.028 232.061 105.028C231.678 107.349 230.285 108.387 227.879 108.143C226.611 108.228 225.491 107.881 224.519 107.105C224.242 106.751 224.043 106.355 223.922 105.918C223.717 104.046 223.643 102.167 223.698 100.281C223.25 100.281 222.802 100.281 222.354 100.281C222.354 99.6382 222.354 98.9953 222.354 98.3525C222.802 98.3525 223.25 98.3525 223.698 98.3525C223.698 97.5614 223.698 96.7701 223.698 95.979Z" fill="#0088CC"/>
<path opacity="0.909" fill-rule="evenodd" clip-rule="evenodd" d="M2.9873 96.4238C3.83352 96.4238 4.67972 96.4238 5.52593 96.4238C5.52593 100.281 5.52593 104.138 5.52593 107.995C4.67972 107.995 3.83352 107.995 2.9873 107.995C2.9873 104.138 2.9873 100.281 2.9873 96.4238Z" fill="#0088CC"/>
<path opacity="0.943" fill-rule="evenodd" clip-rule="evenodd" d="M160.083 96.4238C163.568 96.3991 167.052 96.4238 170.536 96.498C171.892 96.9309 172.689 97.8457 172.925 99.2424C172.084 99.39 171.239 99.4395 170.386 99.3907C170.403 99.0343 170.253 98.7623 169.938 98.5748C166.852 98.4759 163.767 98.4759 160.68 98.5748C160.505 98.649 160.381 98.7726 160.307 98.9457C160.206 99.5391 160.206 100.132 160.307 100.726C160.519 100.868 160.743 100.992 160.979 101.097C164.313 101.146 167.649 101.196 170.984 101.245C171.93 101.494 172.602 102.062 173 102.951C173.367 104.277 173.267 105.563 172.701 106.808C172.296 107.343 171.774 107.713 171.133 107.921C167.35 108.217 163.566 108.217 159.784 107.921C158.307 107.237 157.61 106.075 157.693 104.434C158.54 104.434 159.385 104.434 160.232 104.434C160.208 104.833 160.232 105.229 160.307 105.621C160.441 105.799 160.616 105.923 160.829 105.992C163.916 106.091 167.001 106.091 170.088 105.992C170.669 105.705 170.916 105.235 170.834 104.583C170.928 103.851 170.63 103.381 169.938 103.174C166.604 103.124 163.268 103.075 159.933 103.025C158.685 102.675 157.964 101.859 157.768 100.577C157.424 98.5366 158.196 97.1521 160.083 96.4238Z" fill="#0088CC"/>
<path opacity="0.938" fill-rule="evenodd" clip-rule="evenodd" d="M44.2747 98.2041C46.6148 98.1793 48.9543 98.2041 51.2933 98.2783C52.7971 98.3884 53.7677 99.1549 54.2052 100.578C54.2799 101.763 54.3047 102.95 54.2799 104.138C50.7457 104.138 47.2116 104.138 43.6774 104.138C43.6528 104.586 43.6777 105.031 43.7521 105.473C43.9334 105.703 44.1574 105.876 44.4241 105.992C46.664 106.091 48.904 106.091 51.144 105.992C51.5569 105.829 51.8056 105.533 51.8906 105.102C52.6855 105.028 53.4819 105.003 54.2799 105.028C54.2514 106.466 53.5546 107.43 52.1893 107.921C49.5569 108.155 46.9188 108.205 44.2747 108.069C42.8291 107.966 41.8584 107.249 41.3628 105.918C41.2632 104.088 41.2632 102.259 41.3628 100.429C41.8883 99.0948 42.8589 98.3531 44.2747 98.2041ZM44.4241 100.281C46.6646 100.256 48.9046 100.281 51.144 100.355C51.7507 100.749 51.9995 101.318 51.8906 102.061C49.1529 102.061 46.4151 102.061 43.6774 102.061C43.4985 101.263 43.7475 100.67 44.4241 100.281Z" fill="#0088CC"/>
<path opacity="0.937" fill-rule="evenodd" clip-rule="evenodd" d="M90.1231 112C87.6342 112 85.1455 112 82.6566 112C81.0696 111.571 80.2234 110.532 80.1179 108.885C80.916 108.86 81.7123 108.885 82.5072 108.959C82.5982 109.331 82.7972 109.628 83.1046 109.849C85.2948 109.948 87.4849 109.948 89.6751 109.849C89.7958 109.803 89.8954 109.729 89.9738 109.627C90.1395 108.943 90.1645 108.25 90.0484 107.55C89.8023 107.73 89.5286 107.854 89.2271 107.921C86.8378 108.02 84.4485 108.02 82.0592 107.921C81.0847 107.546 80.4127 106.878 80.0433 105.918C80.0183 105.003 79.9935 104.088 79.9686 103.174C79.9519 102.099 80.0265 101.036 80.1926 99.9841C80.617 99.2403 81.2393 98.7211 82.0592 98.4265C84.1935 98.1955 86.334 98.146 88.4805 98.2782C89.0612 98.2874 89.5839 98.4605 90.0484 98.7974C90.1206 98.6567 90.1453 98.5084 90.1231 98.3523C90.9694 98.3523 91.8155 98.3523 92.6617 98.3523C92.6867 102.061 92.6617 105.77 92.5871 109.478C92.2376 110.789 91.4163 111.63 90.1231 112ZM83.1046 100.281C85.359 100.212 87.599 100.286 89.8244 100.503C89.8991 100.578 89.9738 100.652 90.0484 100.726C90.148 102.358 90.148 103.989 90.0484 105.621C89.9136 105.799 89.7395 105.923 89.5258 105.992C87.2719 106.136 85.032 106.086 82.8059 105.844C82.6265 105.71 82.502 105.537 82.4326 105.325C82.333 103.841 82.333 102.358 82.4326 100.874C82.6412 100.641 82.8652 100.443 83.1046 100.281Z" fill="#0088CC"/>
<path opacity="0.938" fill-rule="evenodd" clip-rule="evenodd" d="M100.275 98.2041C102.615 98.1793 104.954 98.2041 107.293 98.2783C108.797 98.3884 109.768 99.1549 110.205 100.578C110.28 101.763 110.305 102.95 110.28 104.138C106.746 104.138 103.212 104.138 99.6774 104.138C99.6528 104.586 99.6777 105.031 99.7521 105.473C99.9334 105.703 100.157 105.876 100.424 105.992C102.664 106.091 104.904 106.091 107.144 105.992C107.557 105.829 107.806 105.533 107.891 105.102C108.686 105.028 109.482 105.003 110.28 105.028C110.251 106.466 109.555 107.43 108.189 107.921C105.557 108.155 102.919 108.205 100.275 108.069C98.8291 107.966 97.8584 107.249 97.3628 105.918C97.2632 104.088 97.2632 102.259 97.3628 100.429C97.8883 99.0948 98.8589 98.3531 100.275 98.2041ZM100.424 100.281C102.665 100.256 104.905 100.281 107.144 100.355C107.751 100.749 107.999 101.318 107.891 102.061C105.153 102.061 102.415 102.061 99.6774 102.061C99.4985 101.263 99.7475 100.67 100.424 100.281Z" fill="#0088CC"/>
<path opacity="0.958" fill-rule="evenodd" clip-rule="evenodd" d="M289.254 98.2039C290.87 98.0519 292.09 98.6453 292.912 99.9841C293.084 100.413 293.159 100.858 293.136 101.319C292.34 101.319 291.543 101.319 290.747 101.319C290.756 100.865 290.556 100.544 290.15 100.355C288.208 100.256 286.267 100.256 284.326 100.355C283.31 101.036 283.36 101.629 284.475 102.135C286.715 102.184 288.955 102.234 291.195 102.283C293.356 103.186 293.929 104.694 292.912 106.808C292.575 107.243 292.151 107.564 291.643 107.772C288.915 108.014 286.178 108.063 283.43 107.92C282.058 107.446 281.36 106.482 281.339 105.028C282.135 105.028 282.933 105.028 283.729 105.028C283.711 105.563 283.96 105.884 284.475 105.992C286.417 106.091 288.358 106.091 290.299 105.992C291.253 105.41 291.253 104.817 290.299 104.212C288.01 104.162 285.719 104.113 283.43 104.064C281.299 103.254 280.676 101.795 281.563 99.6874C282.01 99.0953 282.582 98.6751 283.281 98.4264C285.298 98.4014 287.289 98.3272 289.254 98.2039Z" fill="#0088CC"/>
<path opacity="0.944" fill-rule="evenodd" clip-rule="evenodd" d="M10.2314 98.3521C11.0279 98.3521 11.8243 98.3521 12.6207 98.3521C12.588 98.5264 12.6378 98.6747 12.7701 98.7971C13.019 98.6736 13.2678 98.5498 13.5167 98.4263C15.707 98.3273 17.897 98.3273 20.0873 98.4263C21.4686 98.8194 22.1903 99.7342 22.2526 101.171C22.3272 103.445 22.3522 105.719 22.3272 107.994C21.481 107.994 20.6349 107.994 19.7886 107.994C19.8136 105.571 19.7886 103.148 19.714 100.726C19.5391 100.519 19.3151 100.395 19.042 100.355C17.2003 100.256 15.3584 100.256 13.5167 100.355C13.2436 100.395 13.0196 100.519 12.8447 100.726C12.7716 103.149 12.6969 105.572 12.6207 107.994C11.8243 107.994 11.0279 107.994 10.2314 107.994C10.2314 104.78 10.2314 101.566 10.2314 98.3521Z" fill="#0088CC"/>
<path opacity="0.969" fill-rule="evenodd" clip-rule="evenodd" d="M72.9482 98.3525C73.7446 98.3525 74.5412 98.3525 75.3375 98.3525C75.3375 101.567 75.3375 104.781 75.3375 107.995C74.5412 107.995 73.7446 107.995 72.9482 107.995C72.9482 104.781 72.9482 101.567 72.9482 98.3525Z" fill="#0088CC"/>
<path opacity="0.944" fill-rule="evenodd" clip-rule="evenodd" d="M114.911 98.3521C115.708 98.3521 116.504 98.3521 117.3 98.3521C117.268 98.5264 117.317 98.6747 117.45 98.7971C117.699 98.6736 117.947 98.5498 118.196 98.4263C120.387 98.3273 122.577 98.3273 124.767 98.4263C126.148 98.8194 126.87 99.7342 126.932 101.171C127.007 103.445 127.032 105.719 127.007 107.994C126.161 107.994 125.315 107.994 124.468 107.994C124.493 105.571 124.468 103.148 124.394 100.726C124.219 100.519 123.995 100.395 123.722 100.355C121.88 100.256 120.038 100.256 118.196 100.355C117.923 100.395 117.699 100.519 117.524 100.726C117.451 103.149 117.377 105.572 117.3 107.994C116.504 107.994 115.708 107.994 114.911 107.994C114.911 104.78 114.911 101.566 114.911 98.3521Z" fill="#0088CC"/>
<path opacity="0.953" fill-rule="evenodd" clip-rule="evenodd" d="M180.541 98.3526C183.429 98.3278 186.315 98.3526 189.202 98.4267C190.322 98.7482 191.043 99.4651 191.367 100.578C191.467 102.308 191.467 104.039 191.367 105.77C190.928 107.195 189.958 107.961 188.455 108.069C185.811 108.207 183.172 108.158 180.541 107.921C179.479 107.63 178.807 106.963 178.525 105.918C178.425 104.089 178.425 102.259 178.525 100.429C178.922 99.466 179.594 98.7737 180.541 98.3526ZM181.586 100.281C183.939 100.211 186.279 100.286 188.605 100.504C188.812 100.677 188.938 100.9 188.978 101.171C189.115 102.666 189.066 104.149 188.829 105.621C188.694 105.8 188.519 105.923 188.306 105.992C185.952 106.136 183.612 106.086 181.287 105.844C181.163 105.72 181.038 105.597 180.914 105.473C180.814 103.94 180.814 102.407 180.914 100.874C181.123 100.642 181.347 100.444 181.586 100.281Z" fill="#0088CC"/>
<path opacity="0.96" fill-rule="evenodd" clip-rule="evenodd" d="M205.179 98.3525C205.975 98.3525 206.773 98.3525 207.569 98.3525C207.543 100.726 207.569 103.1 207.643 105.473C207.794 105.734 208.018 105.907 208.315 105.992C210.207 106.091 212.098 106.091 213.99 105.992C214.203 105.923 214.378 105.8 214.512 105.621C214.73 103.209 214.805 100.786 214.736 98.3525C215.532 98.3525 216.33 98.3525 217.126 98.3525C217.126 101.567 217.126 104.781 217.126 107.995C216.33 107.995 215.532 107.995 214.736 107.995C214.759 107.839 214.733 107.691 214.662 107.55C214.415 107.73 214.142 107.854 213.84 107.921C211.65 108.02 209.461 108.02 207.27 107.921C206.199 107.649 205.527 106.981 205.254 105.918C205.004 103.397 204.979 100.875 205.179 98.3525Z" fill="#0088CC"/>
<path opacity="0.969" fill-rule="evenodd" clip-rule="evenodd" d="M237.286 98.3525C238.082 98.3525 238.879 98.3525 239.675 98.3525C239.675 101.567 239.675 104.781 239.675 107.995C238.879 107.995 238.082 107.995 237.286 107.995C237.286 104.781 237.286 101.567 237.286 98.3525Z" fill="#0088CC"/>
<path opacity="0.953" fill-rule="evenodd" clip-rule="evenodd" d="M247.442 98.3526C250.33 98.3278 253.216 98.3526 256.103 98.4267C257.223 98.7482 257.944 99.4651 258.268 100.578C258.368 102.308 258.368 104.039 258.268 105.77C257.829 107.195 256.858 107.961 255.356 108.069C252.711 108.207 250.073 108.158 247.442 107.921C246.38 107.63 245.708 106.963 245.426 105.918C245.326 104.089 245.326 102.259 245.426 100.429C245.823 99.466 246.495 98.7737 247.442 98.3526ZM248.487 100.281C250.84 100.211 253.18 100.286 255.505 100.504C255.713 100.677 255.838 100.9 255.879 101.171C256.016 102.666 255.967 104.149 255.729 105.621C255.595 105.8 255.42 105.923 255.207 105.992C252.853 106.136 250.513 106.086 248.188 105.844C248.064 105.72 247.939 105.597 247.815 105.473C247.715 103.94 247.715 102.407 247.815 100.874C248.024 100.642 248.248 100.444 248.487 100.281Z" fill="#0088CC"/>
<path opacity="0.944" fill-rule="evenodd" clip-rule="evenodd" d="M263.867 98.3521C264.663 98.3521 265.461 98.3521 266.256 98.3521C266.224 98.5264 266.273 98.6747 266.406 98.7971C266.655 98.6736 266.903 98.5498 267.152 98.4263C269.343 98.3273 271.532 98.3273 273.723 98.4263C275.104 98.8194 275.826 99.7342 275.888 101.171C275.963 103.445 275.988 105.719 275.963 107.994C275.116 107.994 274.271 107.994 273.424 107.994C273.45 105.571 273.424 103.148 273.35 100.726C273.175 100.519 272.951 100.395 272.678 100.355C270.836 100.256 268.994 100.256 267.152 100.355C266.879 100.395 266.655 100.519 266.48 100.726C266.407 103.149 266.333 105.572 266.256 107.994C265.461 107.994 264.663 107.994 263.867 107.994C263.867 104.78 263.867 101.566 263.867 98.3521Z" fill="#0088CC"/>
</svg>
